<?xml version="1.0" encoding="utf-8"?>
<!-- Generator: Adobe Illustrator 16.0.0, SVG Export Plug-In . SVG Version: 6.00 Build 0)  -->
<!DOCTYPE svg PUBLIC "-//W3C//DTD SVG 1.1//EN" "http://www.w3.org/Graphics/SVG/1.1/DTD/svg11.dtd">
<svg version="1.1" id="Layer_1" xmlns="http://www.w3.org/2000/svg" xmlns:xlink="http://www.w3.org/1999/xlink" x="0px" y="0px"
	 width="154.8px" height="54px" viewBox="0 0 154.8 54" enable-background="new 0 0 154.8 54" xml:space="preserve">
<path fill="none" stroke="#010101" stroke-miterlimit="10" d="M42.641,36.339"/>
<path fill="none" stroke="#010101" stroke-miterlimit="10" d="M108.748,14.928"/>
<path fill="none" stroke="#010101" stroke-miterlimit="10" d="M129.193,26.665"/>
<path fill="none" stroke="#57823B" stroke-width="2" stroke-miterlimit="10" d="M41.168,47.733
	c-3.738,2.283-8.131,3.596-12.83,3.596c-13.623,0-24.665-11.041-24.665-24.663S14.715,2,28.338,2c4.194,0,8.145,1.048,11.602,2.896
	c0.535,0.285,1.839,1.069,1.566,0.911"/>
<text transform="matrix(1 0 0 1 18.5186 42.4072)" fill="#17507A" font-family="'Corbel'" font-size="49.3302">I</text>
<text transform="matrix(1 0 0 1 61.3662 38.4014)" fill="#57823B" font-family="'CenturyGothic'" font-size="28">Unified</text>
<text transform="matrix(1 0 0 1 30.6719 42.4072)" fill="#17507A" font-family="'Corbel'" font-size="49.3302">T</text>
<g>
	<polyline fill="#57823B" stroke="#57823B" stroke-miterlimit="10" points="41.498,48.56 43.096,50.694 44.019,45.614 
		38.885,45.071 40.482,47.206 	"/>
</g>
<path fill="none" stroke="#010101" stroke-width="1.2" stroke-miterlimit="10" d="M133.529,51.329"/>
</svg>
