<?xml version="1.0" encoding="utf-8"?>
<!-- Generator: Adobe Illustrator 16.0.0, SVG Export Plug-In . SVG Version: 6.00 Build 0)  -->
<!DOCTYPE svg PUBLIC "-//W3C//DTD SVG 1.1//EN" "http://www.w3.org/Graphics/SVG/1.1/DTD/svg11.dtd">
<svg version="1.1" id="Layer_1" xmlns:serif="http://www.serif.com/"
	 xmlns="http://www.w3.org/2000/svg" xmlns:xlink="http://www.w3.org/1999/xlink" x="0px" y="0px" width="1000px" height="1000px"
	 viewBox="0 0 1000 1000" enable-background="new 0 0 1000 1000" xml:space="preserve">
<path fill="#555555" d="M877.824,0C945.256,0,1000,54.746,1000,122.176v755.648c0,67.43-54.746,122.176-122.176,122.176H669.879
	V623.213h130.078l24.75-161.369H669.879V357.123c0-44.146,21.627-87.18,90.977-87.18h70.395V132.561
	c0,0-63.887-10.902-124.965-10.902c-127.516,0-210.859,77.283-210.859,217.195v122.99H353.682v161.369h141.744V1000h-373.25
	C54.746,1000,0,945.254,0,877.824V122.176C0,54.746,54.744,0,122.176,0H877.824z"/>
</svg>
