<?xml version="1.0" encoding="utf-8"?>
<!-- Generator: Adobe Illustrator 16.0.0, SVG Export Plug-In . SVG Version: 6.00 Build 0)  -->
<!DOCTYPE svg PUBLIC "-//W3C//DTD SVG 1.1//EN" "http://www.w3.org/Graphics/SVG/1.1/DTD/svg11.dtd">
<svg version="1.1" id="Layer_1" xmlns:serif="http://www.serif.com/"
	 xmlns="http://www.w3.org/2000/svg" xmlns:xlink="http://www.w3.org/1999/xlink" x="0px" y="0px" width="1000px" height="1000px"
	 viewBox="0 0 1000 1000" enable-background="new 0 0 1000 1000" xml:space="preserve">
<path fill="#555555" d="M877.824,0C945.256,0,1000,54.746,1000,122.176v755.648c0,67.43-54.746,122.176-122.176,122.176H122.176
	C54.746,1000,0,945.254,0,877.824V122.176C0,54.746,54.744,0,122.176,0H877.824z M313.4,826.715V385.861H166.838v440.854H313.4z
	 M841.797,826.715V573.904c0-135.416-72.301-198.41-168.713-198.41c-77.742,0-112.566,42.756-132.064,72.785v-62.418H394.494
	c1.943,41.369,0,440.854,0,440.854h146.523V580.512c0-13.18,0.949-26.352,4.832-35.771c10.574-26.318,34.701-53.582,75.184-53.582
	c52.998,0,74.232,40.443,74.232,99.682v235.875H841.797z M241.109,173.285c-50.145,0-82.906,32.967-82.906,76.176
	c0,42.301,31.766,76.176,80.967,76.176h0.945c51.104,0,82.914-33.875,82.914-76.176
	C322.082,206.313,291.309,173.379,241.109,173.285z"/>
</svg>
