<?xml version="1.0" encoding="utf-8"?>
<!-- Generator: Adobe Illustrator 16.0.0, SVG Export Plug-In . SVG Version: 6.00 Build 0)  -->
<!DOCTYPE svg PUBLIC "-//W3C//DTD SVG 1.1//EN" "http://www.w3.org/Graphics/SVG/1.1/DTD/svg11.dtd">
<svg version="1.1" id="Layer_1" xmlns:serif="http://www.serif.com/"
	 xmlns="http://www.w3.org/2000/svg" xmlns:xlink="http://www.w3.org/1999/xlink" x="0px" y="0px" width="1000px" height="1000px"
	 viewBox="0 0 1000 1000" enable-background="new 0 0 1000 1000" xml:space="preserve">
<path fill="#555555" d="M877.824,0C945.256,0,1000,54.746,1000,122.176v755.648c0,67.43-54.746,122.176-122.176,122.176H122.176
	C54.746,1000,0,945.254,0,877.824V122.176C0,54.746,54.744,0,122.176,0H877.824z M381.873,829.188
	c265.506,0,410.68-220.006,410.68-410.68c0-6.285,0-12.572-0.299-18.559c28.137-20.354,52.682-45.797,72.139-74.832
	c-25.742,11.375-53.58,19.158-82.914,22.75c29.934-17.961,52.682-46.098,63.457-79.922c-27.836,16.463-58.668,28.438-91.594,35.021
	C727,274.83,689.584,257.469,647.979,257.469c-79.623,0-144.277,64.656-144.277,144.277c0,11.375,1.197,22.449,3.891,32.926
	c-120.031-5.986-226.293-63.457-297.533-150.861c-12.273,21.252-19.457,46.096-19.457,72.438c0,49.988,25.443,94.289,64.355,120.031
	c-23.646-0.6-45.797-7.184-65.254-17.961v1.797c0,70.043,49.689,128.113,115.842,141.582c-11.973,3.293-24.844,5.09-38.016,5.09
	c-9.279,0-18.258-0.898-27.238-2.695c18.26,57.473,71.539,99.078,134.697,100.275c-49.389,38.615-111.648,61.662-179.297,61.662
	c-11.674,0-23.049-0.598-34.424-2.096C224.426,805.242,300.455,829.188,381.873,829.188L381.873,829.188z"/>
</svg>
