<?xml version="1.0" encoding="utf-8"?>
<!-- Generator: Adobe Illustrator 16.0.0, SVG Export Plug-In . SVG Version: 6.00 Build 0)  -->
<!DOCTYPE svg PUBLIC "-//W3C//DTD SVG 1.1//EN" "http://www.w3.org/Graphics/SVG/1.1/DTD/svg11.dtd">
<svg version="1.1" id="Layer_1" xmlns:serif="http://www.serif.com/"
	 xmlns="http://www.w3.org/2000/svg" xmlns:xlink="http://www.w3.org/1999/xlink" x="0px" y="0px" width="1000px" height="1000px"
	 viewBox="0 0 1000 1000" enable-background="new 0 0 1000 1000" xml:space="preserve">
<path fill="#555555" d="M877.824,0C945.256,0,1000,54.746,1000,122.176v755.648c0,67.43-54.746,122.176-122.176,122.176H122.176
	C54.746,1000,0,945.254,0,877.824V122.176C0,54.746,54.744,0,122.176,0H877.824z M836.873,343.027
	c-8.084-30.252-31.908-54.076-62.16-62.16C719.873,266.172,500,266.172,500,266.172s-219.873,0-274.713,14.695
	c-30.246,8.084-54.074,31.908-62.16,62.16c-14.689,54.834-14.689,169.242-14.689,169.242s0,114.406,14.689,169.234
	c8.086,30.252,31.914,54.082,62.16,62.166C280.127,758.359,500,758.359,500,758.359s219.873,0,274.713-14.689
	c30.252-8.084,54.076-31.914,62.16-62.166c14.689-54.828,14.689-169.234,14.689-169.234S851.563,397.861,836.873,343.027z
	 M429.684,617.74V406.799L612.359,512.27L429.684,617.74z"/>
</svg>
