<svg xmlns="http://www.w3.org/2000/svg" xmlns:xlink="http://www.w3.org/1999/xlink" version="1.1" x="0px" y="0px" viewBox="0 0 64 80" style="enable-background:new 0 0 64 64;" xml:space="preserve"><g><path d="M12,53c1.654,0,3-1.346,3-3s-1.346-3-3-3s-3,1.346-3,3S10.346,53,12,53z M12,49c0.551,0,1,0.448,1,1s-0.449,1-1,1   s-1-0.448-1-1S11.449,49,12,49z"/><path d="M31,24c0,1.654,1.346,3,3,3h4c1.654,0,3-1.346,3-3s-1.346-3-3-3h-4C32.346,21,31,22.346,31,24z M39,24c0,0.552-0.449,1-1,1   h-4c-0.551,0-1-0.448-1-1s0.449-1,1-1h4C38.551,23,39,23.448,39,24z"/><polygon points="31.707,19.707 34.414,17 31.707,14.293 30.293,15.707 31.586,17 30.293,18.293  "/><polygon points="41.707,18.293 40.414,17 41.707,15.707 40.293,14.293 37.586,17 40.293,19.707  "/><path d="M62.434,44.31l-5.161-13.762l0.248-0.138C58.434,29.904,59,28.942,59,27.899c0-0.878-0.393-1.695-1.078-2.242l-4.144-3.315   l-4.333-7.799c-0.214-0.385-0.519-0.691-0.863-0.942l0.041-0.145C48.874,12.582,49,11.679,49,10.771C49,5.384,44.617,1,39.229,1   h-6.457C27.383,1,23,5.384,23,10.771c0,0.907,0.126,1.811,0.376,2.686l0.041,0.144c-0.343,0.252-0.649,0.557-0.862,0.942   l-4.333,7.799l-4.144,3.315C13.393,26.204,13,27.021,13,27.899c0,1.043,0.566,2.005,1.477,2.509l0.25,0.139L10.807,41H3   c-1.103,0-2,0.897-2,2v17c0,1.654,1.346,3,3,3h43V50.174l3.504,3.002C51.875,54.353,53.624,55,55.43,55   c4.174,0,7.57-3.396,7.57-7.569C63,46.359,62.81,45.31,62.434,44.31z M56.674,27.22C56.881,27.386,57,27.633,57,27.899   c0,0.316-0.171,0.607-0.448,0.761l-6.898,3.833l-1.489-5.957l4.71-2.355L56.674,27.22z M36.962,59.624   C36.775,58.149,35.526,57,34,57h-0.795l2.625-14h0.34l2.75,14.666L36.962,59.624z M25.781,27H26c0.549,0,1.057-0.159,1.5-0.417   c0.763,1.912,2.342,3.41,4.308,4.061l-0.653,2.609l-7.676,2.953L25.781,27z M29,15.235c0-1.964,1.406-3.623,3.343-3.945   l0.883-0.147C33.676,12.231,34.75,13,36,13h5c1.103,0,2,0.897,2,2v9c0,2.757-2.243,5-5,5h-4c-2.757,0-5-2.243-5-5V15.235z    M38.869,33.599L36,35.75l-2.869-2.151l0.652-2.61C33.856,30.991,33.927,31,34,31h4c0.073,0,0.144-0.009,0.216-0.011L38.869,33.599   z M32.287,38.535l-1.742-2.904l1.298-0.499L34.334,37L32.287,38.535z M23,51.888l2-1.714V57h-2V51.888z M26.105,41.553   l-0.578,1.155C25.183,43.398,25,44.172,25,44.944v2.596l-2,1.714V43c0-0.659-0.325-1.24-0.818-1.605l0.705-2.818l5.764-2.217   l3.063,5.105l1.383-1.037l0.859,1.719L31.17,57H27V44.944c0-0.463,0.109-0.928,0.317-1.342l0.578-1.155L26.105,41.553z M36.382,41   h-0.764l-0.896-1.792L36,38.25l0,0l0,0l1.278,0.958L36.382,41z M37.666,37l2.491-1.868l1.298,0.499l-1.742,2.904L37.666,37z    M40.844,33.253l-0.653-2.609c1.966-0.65,3.546-2.148,4.308-4.061C44.943,26.841,45.451,27,46,27h0.219l2.302,9.206L40.844,33.253z    M51.619,22.573L46.764,25H46c-0.551,0-1-0.448-1-1v-8c0-0.552,0.449-1,1-1h0.823c0.363,0,0.698,0.197,0.874,0.514L51.619,22.573z    M32.771,3h6.457C43.514,3,47,6.486,47,10.771c0,0.722-0.101,1.44-0.299,2.136L46.675,13H46c-0.495,0-0.956,0.132-1.368,0.346   C44,11.966,42.614,11,41,11h-5c-0.551,0-1-0.448-1-1s0.449-1,1-1h1V7h-1c-1.353,0-2.499,0.899-2.872,2.132l-1.114,0.186   c-2.245,0.374-4.002,1.95-4.69,4.004C26.923,13.122,26.477,13,26,13h-0.675l-0.027-0.093C25.101,12.212,25,11.493,25,10.771   C25,6.486,28.486,3,32.771,3z M24.303,15.514C24.479,15.197,24.814,15,25.177,15H26c0.551,0,1,0.448,1,1v8c0,0.552-0.449,1-1,1   h-0.764l-4.855-2.427L24.303,15.514z M15.327,27.22l3.799-3.039l4.71,2.355l-1.489,5.957l-6.899-3.833   C15.171,28.507,15,28.216,15,27.899C15,27.633,15.119,27.386,15.327,27.22z M16.495,31.529l5.349,2.972L20.219,41h-7.276   L16.495,31.529z M21,43v14H3V43H21z M3,60v-1h16v1c0,0.352,0.072,0.686,0.184,1H4C3.449,61,3,60.552,3,60z M22,61   c-0.551,0-1-0.448-1-1v-1h13c0.551,0,1,0.448,1,1s-0.449,1-1,1H22z M55.43,53c-1.329,0-2.616-0.477-3.625-1.342L47,47.539v-2.595   c0-0.772-0.183-1.546-0.528-2.236l-0.578-1.155l-1.789,0.895l0.578,1.155C44.891,44.017,45,44.481,45,44.944V61h-6.586l2.666-2.666   l-3.035-16.188l0.859-1.719l1.383,1.037l3.063-5.105l5.764,2.217l1.358,5.434c0.426,1.702,1.569,3.128,3.138,3.912l1.943,0.972   l0.895-1.789l-1.943-0.972c-1.045-0.522-1.808-1.473-2.091-2.607l-2.256-9.025l5.349-2.972l5.056,13.483   C60.853,45.787,61,46.601,61,47.431C61,50.502,58.501,53,55.43,53z"/><polygon points="3.308,21.927 9.375,26.781 10.625,25.219 6.692,22.073 9.803,20 2.555,15.168 1.445,16.832 6.197,20  "/><polygon points="15.063,16.352 16.937,15.648 14.605,9.432 18.437,10.39 15.961,1.726 14.039,2.274 15.563,7.61 11.395,6.568  "/><polygon points="56.083,12.497 58.083,14.497 62.781,8.625 61.219,7.375 57.917,11.503 55.917,9.503 51.219,15.375 52.781,16.625     "/></g><text x="0" y="79" fill="#000000" font-size="5px" font-weight="bold" font-family="'Helvetica Neue', Helvetica, Arial-Unicode, Arial, Sans-serif">Created by Eucalyp</text><text x="0" y="84" fill="#000000" font-size="5px" font-weight="bold" font-family="'Helvetica Neue', Helvetica, Arial-Unicode, Arial, Sans-serif">from the Noun Project</text></svg>