<svg xmlns="http://www.w3.org/2000/svg" xmlns:xlink="http://www.w3.org/1999/xlink" version="1.1" x="0px" y="0px" viewBox="0 0 512 640" enable-background="new 0 0 512 512" xml:space="preserve"><g><g><g><g><path d="M295.029,222.297h-78.898c-7.214,0-13.083-5.855-13.083-13.053v-61.805c0-7.197,5.869-13.052,13.083-13.052h78.899      c7.196,0,13.053,5.855,13.053,13.052v61.805C308.083,216.441,302.228,222.297,295.029,222.297z M216.131,140.388      c-3.906,0-7.083,3.164-7.083,7.052v61.805c0,3.889,3.177,7.053,7.083,7.053h78.899c3.889,0,7.053-3.164,7.053-7.053V147.44      c0-3.888-3.164-7.052-7.053-7.052H216.131z"/></g><g><path d="M289.57,140.388h-68.01c-1.657,0-3-1.343-3-3v-21.843c0-13.698,11.145-24.842,24.843-24.842h24.354      c13.683,0,24.813,11.144,24.813,24.842v21.843C292.57,139.044,291.229,140.388,289.57,140.388z M224.561,134.388h62.009v-18.843      c0-10.389-8.438-18.842-18.813-18.842h-24.354c-10.39,0-18.843,8.453-18.843,18.842V134.388L224.561,134.388z"/></g><g><path d="M274.182,140.388H236.95c-1.657,0-3-1.343-3-3v-13.9c0-9.301,7.582-16.868,16.9-16.868h9.462      c9.303,0,16.869,7.567,16.869,16.868v13.9C277.182,139.044,275.839,140.388,274.182,140.388z M239.949,134.388h31.232v-10.9      c0-5.993-4.877-10.868-10.869-10.868h-9.463c-6.01,0-10.9,4.875-10.9,10.868V134.388L239.949,134.388z"/></g><g><path d="M261.771,199.491h-12.411c-1.657,0-3-1.343-3-3v-10.438c-2.509-2.476-3.972-5.896-3.972-9.417      c0-7.266,5.911-13.177,13.177-13.177s13.177,5.911,13.177,13.177c0,3.544-1.462,6.967-3.972,9.426v10.43      C264.771,198.148,263.428,199.491,261.771,199.491z M252.36,193.491h6.41v-8.79c0-0.932,0.434-1.811,1.172-2.379      c1.754-1.347,2.801-3.473,2.801-5.688c0-3.958-3.221-7.177-7.177-7.177c-3.958,0-7.177,3.219-7.177,7.177      c0,2.195,1.052,4.326,2.815,5.699c0.73,0.568,1.157,1.441,1.157,2.367V193.491L252.36,193.491z"/></g><g><path d="M118.274,114.604h-24.82c-1.657,0-3-1.343-3-3v-24.82c0-1.657,1.343-3,3-3h24.82c1.657,0,3,1.343,3,3v24.82      C121.274,113.26,119.931,114.604,118.274,114.604z M96.454,108.604h18.82v-18.82h-18.82V108.604z"/></g><g><path d="M118.274,154.814h-24.82c-1.657,0-3-1.343-3-3v-24.821c0-1.657,1.343-3,3-3h24.82c1.657,0,3,1.343,3,3v24.821      C121.274,153.471,119.931,154.814,118.274,154.814z M96.454,148.814h18.82v-18.821h-18.82V148.814z"/></g><g><path d="M118.274,194.993h-24.82c-1.657,0-3-1.343-3-3v-24.821c0-1.657,1.343-3,3-3h24.82c1.657,0,3,1.343,3,3v24.821      C121.274,193.65,119.931,194.993,118.274,194.993z M96.454,188.993h18.82v-18.821h-18.82V188.993z"/></g><g><path d="M118.274,235.203h-24.82c-1.657,0-3-1.343-3-3v-24.821c0-1.657,1.343-3,3-3h24.82c1.657,0,3,1.343,3,3v24.821      C121.274,233.86,119.931,235.203,118.274,235.203z M96.454,229.203h18.82v-18.821h-18.82V229.203z"/></g><g><path d="M118.274,275.412h-24.82c-1.657,0-3-1.344-3-3v-24.82c0-1.657,1.343-3,3-3h24.82c1.657,0,3,1.343,3,3v24.82      C121.274,274.068,119.931,275.412,118.274,275.412z M96.454,269.412h18.82v-18.82h-18.82V269.412z"/></g><g><path d="M439.674,361.635H276.092c-1.656,0-3-1.343-3-3c0-1.656,1.344-3,3-3h163.582c10.973,0,19.897-8.926,19.897-19.896V71.24      c0-10.972-8.927-19.898-19.897-19.898H132.151c-1.657,0-3-1.343-3-3c0-1.657,1.343-3,3-3h307.522      c14.28,0,25.897,11.618,25.897,25.898v264.496C465.571,350.018,453.954,361.635,439.674,361.635z M226.092,361.635H72.357      c-14.28,0-25.898-11.617-25.898-25.896V71.24c0-14.28,11.618-25.898,25.898-25.898h9.84c1.657,0,3,1.343,3,3      c0,1.657-1.343,3-3,3h-9.84c-10.972,0-19.898,8.926-19.898,19.898v264.496c0,10.973,8.926,19.897,19.898,19.897h153.734      c1.657,0,3,1.343,3,3S227.749,361.635,226.092,361.635z"/></g><g><path d="M439.084,290.555H154.995c-1.657,0-3-1.344-3-3c0-1.658,1.343-3,3-3h281.089V74.643h-63.107c-1.656,0-3-1.343-3-3      c0-1.657,1.344-3,3-3h66.107c1.657,0,3,1.343,3,3v215.912C442.084,289.211,440.741,290.555,439.084,290.555z M104.995,290.555      H72.078c-1.657,0-3-1.344-3-3V71.643c0-1.657,1.343-3,3-3h250.943c1.656,0,3,1.343,3,3c0,1.657-1.344,3-3,3H75.078v209.912      h29.917c1.657,0,3,1.342,3,3C107.995,289.211,106.652,290.555,104.995,290.555z"/></g><g><path d="M322.663,436.222c-0.005,0-0.013,0-0.021,0H189.355c-0.931,0-1.808-0.432-2.376-1.169      c-0.568-0.735-0.762-1.694-0.525-2.596l19.64-74.557c0.347-1.317,1.538-2.235,2.901-2.235h94.04c1.363,0,2.555,0.919,2.9,2.237      l19.521,74.226c0.133,0.339,0.205,0.708,0.205,1.094C325.663,434.879,324.32,436.222,322.663,436.222z M193.248,430.222h125.505      l-18.031-68.557h-89.415L193.248,430.222z"/></g><g><path d="M381.594,454.372H150.9c-1.657,0-3-1.343-3-3s1.343-3,3-3h227.693v-12.15H130.438c-1.657,0-3-1.343-3-3      c0-1.656,1.343-3,3-3h251.156c1.657,0,3,1.344,3,3v18.15C384.594,453.029,383.251,454.372,381.594,454.372z"/></g><g><path d="M255.999,346.4c-6.41,0-11.624-5.217-11.624-11.627c0-6.408,5.214-11.623,11.624-11.623      c6.428,0,11.657,5.215,11.657,11.623C267.656,341.186,262.427,346.4,255.999,346.4z M255.999,329.15      c-3.101,0-5.624,2.521-5.624,5.623c0,3.104,2.523,5.627,5.624,5.627c3.119,0,5.657-2.523,5.657-5.627      C261.656,331.673,259.118,329.15,255.999,329.15z"/></g><g><path d="M329.407,471.653H47.256c-1.657,0-3-1.344-3-3c0-1.657,1.343-3,3-3h282.151c1.657,0,3,1.343,3,3      C332.407,470.31,331.064,471.653,329.407,471.653z"/></g><g><path d="M407.749,488.811H212.471c-1.657,0-3-1.343-3-3c0-1.656,1.343-3,3-3h195.278c1.657,0,3,1.344,3,3      C410.749,487.468,409.406,488.811,407.749,488.811z"/></g><g><path d="M452.115,488.811h-24.387c-1.656,0-3-1.343-3-3c0-1.656,1.344-3,3-3h24.387c1.657,0,3,1.344,3,3      C455.115,487.468,453.772,488.811,452.115,488.811z"/></g><g><path d="M128.669,488.282H36.148c-1.657,0-3-1.343-3-3s1.343-3,3-3h92.521c1.657,0,3,1.343,3,3S130.326,488.282,128.669,488.282      z"/></g><g><path d="M417.366,226.236h-91.837c-1.657,0-3-1.343-3-3c0-1.657,1.343-3,3-3h91.837c1.657,0,3,1.343,3,3      C420.366,224.893,419.023,226.236,417.366,226.236z"/></g><g><path d="M417.366,246.62h-91.837c-1.657,0-3-1.343-3-3c0-1.657,1.343-3,3-3h91.837c1.657,0,3,1.343,3,3      C420.366,245.277,419.023,246.62,417.366,246.62z"/></g><g><path d="M417.366,267.005h-91.837c-1.657,0-3-1.343-3-3s1.343-3,3-3h91.837c1.657,0,3,1.343,3,3      S419.023,267.005,417.366,267.005z"/></g><g><path d="M26.004,168.031c-1.657,0-3-1.343-3-3V51.693c0-15.717,12.786-28.504,28.502-28.504h65.154c1.657,0,3,1.343,3,3      s-1.343,3-3,3H51.506c-12.408,0-22.502,10.095-22.502,22.504v113.338C29.004,166.688,27.661,168.031,26.004,168.031z       M485.996,102.597c-1.657,0-3-1.343-3-3V51.693c0-12.409-10.096-22.504-22.504-22.504c-1.657,0-3-1.343-3-3s1.343-3,3-3      c15.717,0,28.504,12.787,28.504,28.504v47.904C488.996,101.254,487.653,102.597,485.996,102.597z"/></g></g></g></g><text x="0" y="527" fill="#000000" font-size="5px" font-weight="bold" font-family="'Helvetica Neue', Helvetica, Arial-Unicode, Arial, Sans-serif">Created by Flatart</text><text x="0" y="532" fill="#000000" font-size="5px" font-weight="bold" font-family="'Helvetica Neue', Helvetica, Arial-Unicode, Arial, Sans-serif">from the Noun Project</text></svg>