<svg height='100px' width='100px'  fill="#4D4D4D" xmlns="http://www.w3.org/2000/svg" xmlns:xlink="http://www.w3.org/1999/xlink" version="1.1" x="0px" y="0px" viewBox="0 0 64 64" style="enable-background:new 0 0 64 64;" xml:space="preserve"><g><path d="M58.706,32.795C61.395,30.727,63,27.468,63,24.076V7c0-0.553-0.447-1-1-1h-0.121c-4.202,0-8.295-1.481-11.522-4.172   l-0.716-0.597c-0.371-0.309-0.91-0.309-1.281,0l-0.716,0.597C44.416,4.519,40.323,6,36.121,6H36c-0.553,0-1,0.447-1,1v4H24.816   C24.402,9.839,23.302,9,22,9c-1.654,0-3,1.346-3,3s1.346,3,3,3c1.302,0,2.402-0.839,2.816-2H35v6h-6.184   c-0.414-1.161-1.514-2-2.816-2c-1.654,0-3,1.346-3,3s1.346,3,3,3c1.302,0,2.402-0.839,2.816-2H35v3.076   c0,0.31,0.028,0.617,0.054,0.924H4c-1.654,0-3,1.346-3,3v24c0,1.654,1.346,3,3,3h15v2h-3c-2.757,0-5,2.243-5,5c0,0.553,0.447,1,1,1   h20c0.553,0,1-0.447,1-1c0-2.757-2.243-5-5-5h-3v-2h15c1.654,0,3-1.346,3-3V35.646l5,3.846v5.692c-1.161,0.414-2,1.514-2,2.816   c0,1.654,1.346,3,3,3s3-1.346,3-3c0-1.302-0.839-2.402-2-2.816v-5.692l6-4.616v14.308c-1.161,0.414-2,1.514-2,2.816   c0,1.654,1.346,3,3,3s3-1.346,3-3c0-1.302-0.839-2.402-2-2.816V33.338L58.706,32.795z M22,13c-0.552,0-1-0.448-1-1s0.448-1,1-1   s1,0.448,1,1S22.552,13,22,13z M26,21c-0.552,0-1-0.448-1-1s0.448-1,1-1s1,0.448,1,1S26.552,21,26,21z M57,53c-0.552,0-1-0.448-1-1   s0.448-1,1-1s1,0.448,1,1S57.552,53,57,53z M37,7.98c4.358-0.192,8.562-1.814,11.925-4.615L49,3.302l0.075,0.063   C52.438,6.166,56.642,7.788,61,7.98v16.096c0,2.774-1.313,5.441-3.513,7.133L49,37.738l-8.487-6.529   c-0.602-0.463-1.13-1.004-1.591-1.595c-0.056-0.134-0.144-0.247-0.249-0.344C37.609,27.763,37,25.948,37,24.076V7.98z M30.829,61   H13.171c0.413-1.164,1.525-2,2.829-2h12C29.304,59,30.416,59.836,30.829,61z M23,57h-2v-2h2V57z M41,52c0,0.552-0.448,1-1,1H4   c-0.552,0-1-0.448-1-1V28c0-0.552,0.448-1,1-1h31.418c0.192,0.689,0.439,1.362,0.759,2H6c-0.553,0-1,0.447-1,1v20   c0,0.553,0.447,1,1,1h32c0.553,0,1-0.447,1-1V32.54c0.1,0.083,0.191,0.175,0.294,0.255L41,34.107V52z M37,31v18H7V31H37z M49,49   c-0.552,0-1-0.448-1-1s0.448-1,1-1s1,0.448,1,1S49.552,49,49,49z"></path><path d="M40,23h3.068c0.078,0.629,0.223,1.232,0.434,1.796l-1.376,0.917l-1.42-1.42l-1.414,1.414l2,2C41.486,27.9,41.742,28,42,28   c0.192,0,0.386-0.055,0.555-0.168l1.905-1.27C45.56,28.052,47.186,29,49,29s3.44-0.948,4.541-2.438l1.905,1.27   C55.614,27.945,55.808,28,56,28c0.258,0,0.514-0.1,0.707-0.293l2-2l-1.414-1.414l-1.42,1.42l-1.376-0.917   c0.211-0.564,0.357-1.167,0.434-1.796H58c0.553,0,1-0.447,1-1v-3h-2v2h-2.065c-0.077-0.624-0.226-1.227-0.439-1.796l2.058-1.372   C56.833,17.646,57,17.334,57,17v-2h-2v1.465l-1.461,0.974c-0.252-0.342-0.528-0.659-0.836-0.941C52.891,16.035,53,15.53,53,15   c0-0.997-0.38-1.899-0.985-2.6l1.693-1.693l-1.414-1.414l-1.954,1.954C49.918,11.097,49.472,11,49,11s-0.918,0.097-1.339,0.247   l-1.954-1.954l-1.414,1.414l1.693,1.693C45.38,13.101,45,14.003,45,15c0,0.529,0.108,1.032,0.296,1.495   c-0.307,0.282-0.581,0.603-0.833,0.945L43,16.465V15h-2v2c0,0.334,0.167,0.646,0.445,0.832l2.06,1.373   c-0.213,0.569-0.363,1.171-0.44,1.794H41v-2h-2v3C39,22.553,39.447,23,40,23z M45,22c0-1.533,0.568-2.952,1.51-3.894   c0.434,0.348,0.936,0.608,1.49,0.752v7.964C46.279,26.263,45,24.323,45,22z M50,26.823v-7.964c0.554-0.144,1.056-0.404,1.489-0.752   C52.432,19.047,53,20.462,53,22C53,24.323,51.721,26.263,50,26.823z M51,15c0,1.103-0.897,2-2,2s-2-0.897-2-2s0.897-2,2-2   S51,13.897,51,15z"></path></g></svg>