<svg height='100px' width='100px'  fill="#4D4D4D" xmlns="http://www.w3.org/2000/svg" xmlns:xlink="http://www.w3.org/1999/xlink" version="1.1" x="0px" y="0px" viewBox="0 0 91 91" style="enable-background:new 0 0 91 91;" xml:space="preserve"><g><path d="M50.7,47.3H66c1,0,1.8-0.8,1.8-1.8S67,43.7,66,43.7H50.7c-1,0-1.8,0.8-1.8,1.8S49.7,47.3,50.7,47.3z"></path><path d="M56.5,28.6h-5.7c-1,0-1.8,0.8-1.8,1.8s0.8,1.8,1.8,1.8h5.7c1,0,1.8-0.8,1.8-1.8S57.5,28.6,56.5,28.6z"></path><path d="M66,32.2c1,0,1.8-0.8,1.8-1.8S67,28.6,66,28.6h-2.8c-1,0-1.8,0.8-1.8,1.8s0.8,1.8,1.8,1.8H66z"></path><path d="M50.7,39.6h2.9c1,0,1.8-0.8,1.8-1.8S54.6,36,53.6,36h-2.9c-1,0-1.8,0.8-1.8,1.8S49.7,39.6,50.7,39.6z"></path><path d="M57.4,37.8c0,1,0.8,1.8,1.8,1.8h10.5c1,0,1.8-0.8,1.8-1.8S70.7,36,69.7,36H59.2C58.2,35.9,57.4,36.8,57.4,37.8z"></path><path d="M63.8,68.1c-0.2-0.7-0.8-1.1-1.5-1.2l-10.8-1.6l-4.8-9.7c-0.3-0.6-0.9-1-1.6-1c-0.7,0-1.3,0.4-1.6,1l-4.8,9.7l-10.8,1.6   c-0.7,0.1-1.3,0.6-1.5,1.2c-0.2,0.7,0,1.4,0.5,1.9l7.8,7.6l-1.8,10.7c-0.1,0.7,0.2,1.4,0.7,1.8c0.6,0.4,1.3,0.5,1.9,0.1l9.6-5.1   l9.6,5.1c0.3,0.1,0.6,0.2,0.9,0.2c0.4,0,0.8-0.1,1.1-0.4c0.6-0.4,0.8-1.1,0.7-1.8l-1.8-10.7l7.8-7.6C63.9,69.5,64,68.7,63.8,68.1z    M52.3,75.6c-0.4,0.4-0.6,1-0.5,1.6l1.4,8L46,81.4c-0.3-0.1-0.6-0.2-0.9-0.2c-0.3,0-0.6,0.1-0.9,0.2L37,85.2l1.4-8   c0.1-0.6-0.1-1.2-0.5-1.6l-5.8-5.7l8-1.2c0.6-0.1,1.1-0.5,1.4-1l3.6-7.3l3.6,7.3c0.3,0.5,0.8,0.9,1.4,1l8,1.2L52.3,75.6z"></path><path d="M6.3,66.2L5.2,73c-0.1,0.7,0.2,1.4,0.7,1.8C6.2,75,6.6,75.2,7,75.2c0.3,0,0.6-0.1,0.9-0.2l6.1-3.2l6.1,3.2   c0.6,0.3,1.4,0.3,1.9-0.1c0.6-0.4,0.8-1.1,0.7-1.8l-1.2-6.8l4.9-4.8c0.5-0.5,0.7-1.2,0.5-1.9s-0.8-1.1-1.5-1.3l-6.8-1l-2.4-4.8v-48   h45.3v6.1c0,3.2,2.6,5.8,5.8,5.8H74v36.1l-2.4,4.8l-6.8,1c-0.7,0.1-1.3,0.6-1.5,1.3s0,1.4,0.5,1.9l4.9,4.8L67.5,73   c-0.1,0.7,0.2,1.4,0.7,1.8c0.6,0.4,1.3,0.5,1.9,0.1l6.1-3.2l6.1,3.2c0.3,0.1,0.6,0.2,0.9,0.2c0.4,0,0.8-0.1,1.1-0.4   c0.6-0.4,0.8-1.1,0.7-1.8l-1.2-6.8l4.9-4.8c0.5-0.5,0.7-1.2,0.5-1.9s-0.8-1.1-1.5-1.3l-6.8-1l-2.9-6c-0.1-0.2-0.2-0.3-0.3-0.4V14.5   c0-0.5-0.2-1-0.6-1.3L64.7,1.3c-0.1-0.1-0.1-0.1-0.2-0.1c-0.3-0.2-0.7-0.4-1.1-0.4H14.5c-1,0-1.8,0.8-1.8,1.8v48   c-0.1,0.1-0.2,0.3-0.3,0.4l-3.1,6.2l-6.8,1c-0.7,0.1-1.3,0.6-1.5,1.3s0,1.4,0.5,1.9L6.3,66.2z M74.5,59.8l1.8-3.7l1.8,3.7   c0.3,0.5,0.8,0.9,1.4,1l4.1,0.6l-3,2.9c-0.4,0.4-0.6,1-0.5,1.6l0.7,4.1l-3.6-2c-0.3-0.1-0.6-0.2-0.9-0.2s-0.6,0.1-0.9,0.2l-3.6,2   l0.7-4.1c0.1-0.6-0.1-1.2-0.5-1.6l-3-2.9l4.1-0.6C73.7,60.7,74.2,60.3,74.5,59.8z M65.2,7l6,5.8h-3.9c-1.2,0-2.1-1-2.1-2.1V7z    M10.7,60.8c0.6-0.1,1.1-0.5,1.4-1l1.8-3.7l1.8,3.7c0.3,0.5,0.8,0.9,1.4,1l4.1,0.6l-3,2.9c-0.4,0.4-0.6,1-0.5,1.6l0.7,4.1l-3.6-2   c-0.3-0.1-0.6-0.2-0.9-0.2c-0.3,0-0.6,0.1-0.9,0.2l-3.6,2l0.7-4.1c0.1-0.6-0.1-1.2-0.5-1.6l-3-2.9L10.7,60.8z"></path><path d="M33.2,18.5h0.2c3.1,0,5.7,2,5.7,4.5c0,1,0.8,1.8,1.8,1.8s1.8-0.8,1.8-1.8c0-4.5-4.2-8.1-9.3-8.1h-0.2   c-5.1,0-9.3,3.7-9.3,8.1v6.2c-1.5,1.7-2.4,3.8-2.4,6.1v4.9c0,5.6,5.2,10.1,11.7,10.1h0.3c6.4,0,11.7-4.5,11.7-10.1v-4.9   c0-5.6-5.2-10.1-11.7-10.1h-0.3c-2,0-4,0.5-5.6,1.3V23C27.5,20.5,30,18.5,33.2,18.5z M33.1,28.8h0.3c4.4,0,8,2.9,8,6.4v4.9   c0,3.6-3.6,6.4-8,6.4h-0.3c-4.4,0-8-2.9-8-6.4v-4.9C25.1,31.7,28.7,28.8,33.1,28.8z"></path><path d="M31.4,39.4v1.8c0,1,0.8,1.8,1.8,1.8l0,0c1,0,1.8-0.8,1.8-1.8v-1.8c1-0.6,1.7-1.7,1.7-3c0-1.9-1.6-3.5-3.5-3.5   s-3.5,1.6-3.5,3.5C29.7,37.7,30.4,38.8,31.4,39.4z"></path><path d="M14.8,75.1c-1,0-1.8,0.8-1.8,1.8v10.7c0,1,0.8,1.8,1.8,1.8h12.3c1,0,1.8-0.8,1.8-1.8s-0.8-1.8-1.8-1.8H16.6V77   C16.6,75.9,15.8,75.1,14.8,75.1z"></path><path d="M61.7,89.4h14c1,0,1.8-0.8,1.8-1.8V76.9c0-1-0.8-1.8-1.8-1.8s-1.8,0.8-1.8,1.8v8.8H61.7c-1,0-1.8,0.8-1.8,1.8   C59.9,88.6,60.7,89.4,61.7,89.4z"></path></g></svg>