<svg height='100px' width='100px'  fill="#4D4D4D" xmlns="http://www.w3.org/2000/svg" xmlns:xlink="http://www.w3.org/1999/xlink" viewBox="0 0 56 56" version="1.1" x="0px" y="0px"><title>039 - Restore machine</title><desc>Created with Sketch.</desc><g stroke="none" stroke-width="1" fill="none" fill-rule="evenodd"><g fill="#4D4D4D" fill-rule="nonzero"><path d="M41,54 L15,54 C13.8959536,54.001262 13.001262,54.8959536 13,56 L43,56 C42.998738,54.8959536 42.1040464,54.001262 41,54 Z"></path><path d="M0,45.16992 C0.0500311754,46.778455 1.39128152,48.043737 3,48 L53,48 C54.6087185,48.043737 55.9499688,46.778455 56,45.16992 L56,42 L0,42 L0,45.16992 Z"></path><rect x="21" y="50" width="14" height="2"></rect><path d="M4.31836,10.998 C4.86914,11.1645 5.38574,11.34809 5.52736,11.4145 C7.52736,12.34468 8.63967,14.08735 8.35842,15.85298 C8.1257729,16.8509887 7.59675933,17.7553154 6.84084,18.44722 L6.77053,18.52436 C6.18208597,19.1821759 5.69854314,19.9267563 5.33693,20.73188 C4.73894175,21.9894057 4.42710385,23.3638381 4.42385,24.7563 C4.46888796,27.9466334 6.04831618,30.9198359 8.66665,32.74318 C7.88552237,31.6819566 7.45145071,30.4052593 7.42385,29.08784 C7.44520567,27.2087021 8.27331167,25.4294165 9.69729,24.20308 C10.1858744,23.7871044 10.7002306,23.4023861 11.23729,23.05122 C11.7158898,22.7393361 12.1741744,22.3973361 12.60937,22.02729 C13.3349409,21.4443149 13.8570191,20.6463269 14.10058,19.748 C14.2466228,18.9251889 14.2941575,18.0879133 14.24218,17.25386 C14.23437,16.87397 14.22753,16.4936 14.23437,16.11274 L14.23437,16.10688 C14.264315,15.563193 14.7104015,15.1356844 15.25487,15.12888 C15.5408529,15.1346499 15.8106708,15.262626 15.99608,15.48044 C16.04008,15.50729 16.08788,15.53366 16.12597,15.55466 C16.20507,15.59958 16.26562,15.63718 16.29297,15.65622 C18.0271316,16.8693014 19.2580234,18.6744794 19.75391,20.7319 C19.8479949,21.1211569 19.9097286,21.5175276 19.93848,21.91696 C19.9827556,23.5035212 19.5437573,25.0660681 18.67969,26.39743 C19.3014558,26.5033158 19.9406978,26.3901029 20.48828,26.07712 C20.6601757,25.972386 20.8063531,25.8303813 20.91602,25.66159 C20.9807825,25.5384367 21.0284227,25.4070157 21.05762,25.27097 C21.09668,25.13132 21.13672,24.99069 21.18848,24.8486 C21.3197616,24.4898383 21.6439935,24.2372361 22.0239684,24.1976888 C22.4039432,24.1581416 22.7732435,24.3385618 22.97559,24.6626 C23.01859,24.71533 23.08398,24.79248 23.14259,24.8623 C23.25294,24.99268 23.34571,25.1103 23.36524,25.14111 C23.5483725,25.427204 23.7099523,25.7265345 23.84864,26.03662 C24.0906369,26.5642097 24.2793982,27.1146251 24.41212,27.67969 C24.7156534,28.9022689 24.6815643,30.1843189 24.31349,31.38904 C25.980274,29.5955337 26.929179,27.251628 26.97949,24.80371 L26.97949,24.80271 C27.0085293,24.2232496 27.0059221,23.6426362 26.97168,23.06346 C26.9138673,20.5610212 26.3036058,18.1023002 25.18457,15.86326 C23.8486121,13.6213051 22.2439712,11.5508155 20.40625,9.69773 C17.9873,7.04393 16.75781,3.26273 18.48145,0.47703 C18.26074,0.39403 18.08008,0.32566 18.01465,0.30418 C16.8276297,-0.0514244711 15.5688952,-0.094481093 14.36035,0.17918 C10.37109,1.22605 9.46191,5.5283 10.30469,9.0825 C10.384745,9.4182845 10.2858014,9.77160678 10.0430004,10.0169794 C9.80019953,10.2623521 9.44793931,10.3650127 9.11133,10.2885 C6.69824,9.74268 5.21,10.29883 4.31836,10.998 Z"></path><path d="M17.94629,22.08984 C17.9255698,21.7900035 17.8798374,21.4924221 17.80957,21.2002 C17.539371,20.1086886 17.004026,19.1007087 16.251,18.26563 C16.2515474,18.9104663 16.1847789,19.5535982 16.05178,20.18457 C15.7213353,21.4942112 14.9804399,22.6637283 13.9375,23.522 C13.439586,23.9491083 12.9143846,24.3433359 12.36523,24.70218 C11.8984883,25.0068674 11.4507207,25.3396758 11.02441,25.69876 C10.0323245,26.5418905 9.44952829,27.7700525 9.42383,29.07176 C9.45374,32.22569 13.34961,34.34147 14.625,34.94944 C14.98743,34.98136 15.354,34.99998 15.72559,34.99998 C17.0944534,34.9962616 18.4530496,34.7635562 19.74512,34.3115 C21.14844,33.27238 23.21212,31.17204 22.46973,28.15721 C22.3960148,27.8506157 22.3037211,27.5487885 22.19336,27.2534 C21.997195,27.455431 21.7767679,27.6323941 21.53711,27.78025 C20.4156211,28.4477063 19.0657703,28.6147112 17.81543,28.2407 C17.23143,28.05955 16.49707,27.73289 16.30176,27.20213 C16.1947641,26.9060375 16.2300631,26.5771705 16.39746,26.31053 C17.3413462,25.099628 17.8828997,23.6238499 17.94629,22.08984 Z"></path><path d="M53,4 L19.71655,4 C19.9999226,5.62630487 20.7505955,7.13494745 21.87695,8.3418 C23.8332885,10.3167394 25.5367578,12.527018 26.94824,14.92188 C28.2071756,17.4147108 28.8969487,20.155957 28.96777,22.94775 C29.0065604,23.6005731 29.0098219,24.2550227 28.97754,24.9082 C28.8967253,27.9548095 27.6621643,30.8570948 25.52344,33.02832 C24.1053394,34.4336531 22.3908252,35.5039573 20.50549,36.16083 C20.4618718,36.1796911 20.4169565,36.1953981 20.37109,36.20783 C18.877207,36.7275695 17.3072958,36.9952773 15.72559,37 C8.39059,37 2.42383,31.50732 2.42383,24.75635 C2.42776922,23.066722 2.80561841,21.398908 3.53027,19.87256 C3.97696308,18.8912249 4.57032591,17.9835439 5.29,17.18066 L5.36129,17.10205 C5.83629547,16.6819254 6.18946817,16.1416968 6.38375,15.53805 C6.53902,14.561 5.64059,13.6733 4.6816,13.22705 C4.59176,13.18994 3.89742,12.94385 3.2656,12.77783 C2.68452935,12.6279964 2.22695955,12.1804926 2.06423947,11.6028981 C1.90151939,11.0253036 2.05819688,10.4047539 2.4756,9.97363 C3.95516865,8.50346883 6.03864354,7.81241144 8.10353,8.10693 C7.93250396,6.73558583 8.00815191,5.34470606 8.3269,4 L3,4 C1.39128152,3.95626304 0.0500311754,5.22154497 0,6.83008 L0,40 L56,40 L56,6.83008 C55.9499688,5.22154497 54.6087185,3.95626304 53,4 Z M36,28 C35.6770235,28.0002078 35.3739143,27.8441037 35.18652,27.58105 L30.18652,20.58105 C29.9684382,20.2763764 29.9390986,19.8753134 30.1105195,19.5421459 C30.2819405,19.2089785 30.6253194,18.9996861 31,19 L33,19 L33,18 C33.0036209,14.6877925 35.6877925,12.0036209 39,12 L44,12 C45.6568542,12 47,13.3431458 47,15 C47,16.6568542 45.6568542,18 44,18 L39,18 L39,19 L41,19 C41.3746806,18.9996861 41.7180595,19.2089785 41.8894805,19.5421459 C42.0609014,19.8753134 42.0315618,20.2763764 41.81348,20.58105 L36.81348,27.58105 C36.6260857,27.8441037 36.3229765,28.0002078 36,28 Z M53.88965,27.45752 C53.7180095,27.7906076 53.3747103,27.9999404 53,28 L51,28 L51,29 C50.9963791,32.3122075 48.3122075,34.9963791 45,35 L40,35 C38.3431458,35 37,33.6568542 37,32 C37,30.3431458 38.3431458,29 40,29 L45,29 L45,28 L43,28 C42.6253194,28.0003139 42.2819405,27.7910215 42.1105195,27.4578541 C41.9390986,27.1246866 41.9684382,26.7236236 42.18652,26.41895 L47.18652,19.41895 C47.3828685,19.1696523 47.6826842,19.0241479 48.00002,19.0241479 C48.3173558,19.0241479 48.6171715,19.1696523 48.81352,19.41895 L53.81352,26.41895 C54.0312262,26.7236243 54.0606009,27.124356 53.88965,27.45752 Z"></path><path d="M37,20 L37,18 C37.001262,16.8959536 37.8959536,16.001262 39,16 L44,16 C44.5522847,16 45,15.5522847 45,15 C45,14.4477153 44.5522847,14 44,14 L39,14 C36.7918366,14.0023534 35.0023534,15.7918366 35,18 L35,20 C35.000069,20.2652376 34.8947343,20.5196316 34.707183,20.707183 C34.5196316,20.8947343 34.2652376,21.000069 34,21 L32.94336,21 L36,25.2793 L39.05664,21 L38,21 C37.7347624,21.000069 37.4803684,20.8947343 37.292817,20.707183 C37.1052657,20.5196316 36.999931,20.2652376 37,20 Z"></path><path d="M44.94336,26 L46,26 C46.2652376,25.999931 46.5196316,26.1052657 46.707183,26.292817 C46.8947343,26.4803684 47.000069,26.7347624 47,27 L47,29 C46.998738,30.1040464 46.1040464,30.998738 45,31 L40,31 C39.4477153,31 39,31.4477153 39,32 C39,32.5522847 39.4477153,33 40,33 L45,33 C47.2081634,32.9976466 48.9976466,31.2081634 49,29 L49,27 C48.999931,26.7347624 49.1052657,26.4803684 49.292817,26.292817 C49.4803684,26.1052657 49.7347624,25.999931 50,26 L51.05664,26 L48,21.7207 L44.94336,26 Z"></path></g></g></svg>