<svg height='100px' width='100px'  fill="#4D4D4D" xmlns="http://www.w3.org/2000/svg" xmlns:xlink="http://www.w3.org/1999/xlink" version="1.1" x="0px" y="0px" viewBox="0 0 100 100" style="enable-background:new 0 0 100 100;" xml:space="preserve"><g><g><g><g><path d="M56.7,49.7H43.3c-0.8,0-1.5-0.7-1.5-1.5v-3.5c-0.4-0.7-0.8-1.2-1.2-1.8c-1.7-2.1-2.7-4.9-2.7-7.7v0      c0-7.6,5.4-13.8,12.1-13.8s12.1,6.2,12.1,13.8v0c0,2.9-1,5.6-2.7,7.7c-0.4,0.5-0.8,1.1-1.2,1.8v3.5      C58.2,49.1,57.5,49.7,56.7,49.7z M44.8,46.8h10.4v-2.4c0-0.2,0.1-0.5,0.2-0.7c0.5-0.9,1.1-1.8,1.7-2.6c1.3-1.6,2-3.7,2-5.9v0      c0-6-4.1-10.8-9.1-10.8s-9.1,4.8-9.1,10.8v0c0,2.2,0.7,4.3,2,5.9c0.6,0.8,1.2,1.6,1.7,2.6c0.1,0.2,0.2,0.5,0.2,0.7V46.8z"></path></g></g><g><path d="M50,58.8c-5.1,0-9.2-4.1-9.2-9.2v-1.4c0-0.8,0.7-1.5,1.5-1.5h15.4c0.8,0,1.5,0.7,1.5,1.5v1.4     C59.2,54.7,55.1,58.8,50,58.8z M43.8,49.7c0.1,3.4,2.8,6.1,6.2,6.1s6.2-2.7,6.2-6.1H43.8z"></path></g><g><path d="M60,49.7H40c-0.8,0-1.5-0.7-1.5-1.5c0-0.8,0.7-1.5,1.5-1.5H60c0.8,0,1.5,0.7,1.5,1.5C61.4,49.1,60.8,49.7,60,49.7z"></path></g><g><path d="M45.3,37.1c-0.7,0-1.3-0.5-1.5-1.2c-1-4.9,3.4-7.5,3.6-7.6c0.7-0.4,1.6-0.2,2,0.6c0.4,0.7,0.2,1.6-0.5,2     c-0.1,0.1-2.7,1.7-2.2,4.4c0.2,0.8-0.4,1.6-1.2,1.7C45.5,37.1,45.4,37.1,45.3,37.1z"></path></g></g><g><g><path d="M58.1,78.6c-0.5,0-1-0.3-1.3-0.8l-5.5-10.2c-0.4-0.7-0.1-1.6,0.6-2l2.2-1.2c0.6-0.3,1-0.8,1.3-1.3c0,0,0,0,0,0l2.6-4.5     c0.8-1.4,1.9-2.5,3.3-3.2l4.3-2.3c1.7-0.9,3.8-0.3,4.7,1.4c0.7,1.3,0.5,3-0.5,4.1l-1.8,1.9l4.5-4.1l1.5-6.4     c0.2-1,0.9-1.9,1.7-2.4c0.9-0.5,1.9-0.7,2.9-0.4c1.8,0.5,3,2.3,2.8,4.1l-1,7.9c-0.1,0.9-0.5,1.7-1,2.4l-6.7,8.7     c-0.4,0.5-1,1-1.6,1.3l-12.4,6.7C58.6,78.5,58.3,78.6,58.1,78.6z M54.5,67.5l4.1,7.6l11.1-6c0.3-0.1,0.5-0.3,0.6-0.5l6.7-8.7     c0.2-0.3,0.4-0.6,0.4-1l1-7.9c0.1-0.4-0.2-0.8-0.6-0.9c-0.2-0.1-0.5,0-0.6,0.1c-0.2,0.1-0.3,0.3-0.4,0.5L75.4,57     c-0.1,0.6-0.4,1-0.8,1.4l-5.3,4.8c-1.2,1.1-2.9,1-4-0.1l0,0c-1.1-1.1-1.1-2.9-0.1-4l2.5-2.7c0.2-0.2,0.2-0.4,0.1-0.6     c-0.1-0.2-0.4-0.3-0.7-0.2L62.6,58c-0.9,0.5-1.6,1.2-2.1,2.1l-2.6,4.5v0c-0.6,1-1.5,1.9-2.5,2.4L54.5,67.5z"></path></g><g><path d="M41.9,78.6c-0.2,0-0.5-0.1-0.7-0.2l-12.4-6.7c-0.6-0.3-1.1-0.8-1.6-1.3l-6.7-8.7c-0.5-0.7-0.9-1.5-1-2.4l-1-7.9     c-0.2-1.9,1-3.7,2.8-4.1c1-0.3,2-0.1,2.9,0.4c0.9,0.5,1.5,1.4,1.7,2.4l1.5,6.4l4.5,4.1l-1.8-1.9c-1-1.1-1.2-2.7-0.5-4.1     c0.9-1.7,3-2.3,4.7-1.4l4.3,2.3c1.4,0.7,2.5,1.8,3.3,3.2l2.6,4.5c0,0,0,0,0,0c0.3,0.6,0.8,1,1.3,1.3l2.2,1.2c0.7,0.4,1,1.3,0.6,2     l-5.5,10.2C43,78.3,42.5,78.6,41.9,78.6z M22.3,50c-0.1,0-0.1,0-0.2,0c-0.4,0.1-0.7,0.5-0.6,0.9l1,7.9c0,0.4,0.2,0.7,0.4,1     l6.7,8.7c0.2,0.2,0.4,0.4,0.6,0.5l11.1,6l4.1-7.6L44.6,67c-1-0.6-1.9-1.4-2.5-2.4l-2.6-4.5c-0.5-0.9-1.2-1.6-2.1-2.1L33,55.7     c-0.2-0.1-0.6,0-0.7,0.2c-0.1,0.2-0.1,0.4,0.1,0.6l2.5,2.7c1.1,1.1,1,2.9-0.1,4l0,0c-1.1,1.1-2.9,1.1-4,0.1l-5.3-4.8     c-0.4-0.4-0.7-0.9-0.8-1.4l-1.5-6.4c-0.1-0.2-0.2-0.4-0.4-0.5C22.6,50,22.5,50,22.3,50z"></path></g></g></g></svg>