<svg height='100px' width='100px'  fill="#4D4D4D" xmlns="http://www.w3.org/2000/svg" viewBox="0 0 48 48" x="0px" y="0px"><title>Firewall</title><g><path d="M47,13a1,1,0,0,0,1-1V4a1,1,0,0,0-1-1H5A1,1,0,0,0,4,4v7H1a1,1,0,0,0-1,1v8a1,1,0,0,0,1,1H4v6H1a1,1,0,0,0-1,1v8a1,1,0,0,0,1,1H4v7a1,1,0,0,0,1,1H47a1,1,0,0,0,1-1V36a1,1,0,0,0-1-1H44V29h3a1,1,0,0,0,1-1V20a1,1,0,0,0-1-1H44V13ZM20,5H32v5.44C23.46,8.88,24.09,9,23.83,9L20,9.71ZM6,5H18v5.08C11.59,11.24,14.29,11,6,11Zm6.65,22H6V21h6A19.33,19.33,0,0,0,12.65,27ZM2,19V13H12v6ZM2,35V29H13.33c.89,2.16.67.2.67,6Zm16,8H6V37H18Zm-2-8V33.49A18.14,18.14,0,0,0,17.4,35ZM14,22.3V12.83L24,11l10,1.81V22.3A15.75,15.75,0,0,1,24,36.93,15.75,15.75,0,0,1,14,22.3ZM32,43H20V37.1A14.83,14.83,0,0,0,24,39c.77,0,3.27-1.41,4.14-2H32Zm-1.4-8a17.83,17.83,0,0,0,4.07-6H42v6ZM46,37v6H34V37Zm0-16v6H35.35A19.71,19.71,0,0,0,36,21ZM36,19V13h6v6Zm-2-8.2V5H46v6C33.43,11,35.5,11.07,34,10.8Z"></path><path d="M24.45,34.54A13.82,13.82,0,0,0,32,22.3v-7a1,1,0,0,0-.82-1l-7-1.27c-.26-.05.28-.12-7.37,1.27a1,1,0,0,0-.82,1v7a13.82,13.82,0,0,0,7.55,12.24A1,1,0,0,0,24.45,34.54ZM18,22.3V16.17l6-1.09,6,1.09V22.3a11.83,11.83,0,0,1-6,10.22A11.83,11.83,0,0,1,18,22.3Z"></path></g></svg>