<svg height='100px' width='100px'  fill="#4D4D4D" xmlns="http://www.w3.org/2000/svg" data-name="Layer 1" viewBox="0 0 128 128" x="0px" y="0px"><title>Miscellaneous 205 solid</title><path d="M115.934,21.51611a2.07263,2.07263,0,0,0-.61273-1.01758l-22.72754-20A2.00053,2.00053,0,0,0,91.27246,0H18.5459A6.33458,6.33458,0,0,0,12,6.25v116c0,3.1167,2.998,5.75,6.5459,5.75h90.9082A6.29787,6.29787,0,0,0,116,122V22A1.89727,1.89727,0,0,0,115.934,21.51611ZM26,13H70a2,2,0,0,1,0,4H26a2,2,0,0,1,0-4Zm11.26367,95.55029-7.36426,6a2.01471,2.01471,0,0,1-2.832-.31012c-.007-.00879-2.63574-3.33343-2.63574-3.33343a1.99948,1.99948,0,1,1,3.13672-2.48047l1.37793,1.74121,5.79-4.71777a2.00007,2.00007,0,1,1,2.52734,3.10059Zm0-16-7.36426,6a2.03587,2.03587,0,0,1-2.83209-.31012c-.0127-.01611-2.63568-3.33344-2.63568-3.33344a1.99948,1.99948,0,1,1,3.13672-2.48047l1.37793,1.74121,5.79-4.71777a2.00007,2.00007,0,1,1,2.52734,3.10059Zm0-16-7.36426,6a2.04876,2.04876,0,0,1-2.83209-.31018c-.01459-.01843-2.63568-3.33337-2.63568-3.33337a1.99948,1.99948,0,1,1,3.13672-2.48047l1.37793,1.74121,5.79-4.71777a2.00007,2.00007,0,1,1,2.52734,3.10059ZM102,109H46a2,2,0,0,1,0-4h56a2,2,0,0,1,0,4ZM69,46.5A26.463,26.463,0,0,1,66.82141,57H102a2,2,0,0,1,0,4H70.79828l-.0011-.00055A8.06046,8.06046,0,0,1,72.59961,62.353L83.26025,73.01385l.00073.00006L83.24707,73H102a2,2,0,0,1,0,4H87.25031l-.00165.00238,8.39685,8.397a7.97265,7.97265,0,0,1,2.07513,3.60236L97.72028,89H102a2,2,0,0,1,0,4H97.76129a7.97685,7.97685,0,0,1-2.11578,3.76563l-2.88086,2.88086a8.03657,8.03657,0,0,1-11.36426.00049l-6.6651-6.66522-.00067-.00006L74.75293,93H46a2,2,0,0,1,0-4H70.75293l.02887.02887.00024-.00049-12.03979-12.04.01062.01154L46,77a2.0001,2.0001,0,0,1-2-2,2.08839,2.08839,0,0,1,2.2464-2H56.27972l.00031.00079a8.00827,8.00827,0,0,1-.09254-3.82208A26.48367,26.48367,0,0,1,24.93726,26.67914a1.37043,1.37043,0,0,1-.40857-.34369A1.968,1.968,0,0,1,24,25a2.0001,2.0001,0,0,1,2-2h4.01221c-.02032.01062-.03973.02344-.06006.03412a1.72214,1.72214,0,0,1,.24011.0238A26.35307,26.35307,0,0,1,54.72522,23H78a2,2,0,0,1,0,4H60.42169a26.49713,26.49713,0,0,1,7.98608,14.01056c.03174-.00165.05945-.00916.09222-.00916l.01056.001L68.51013,41H102a2,2,0,0,1,0,4H69.10193l-.00018-.00177-.01941.002c-.05273,0-.09839-.01056-.14838-.01471C68.96649,45.48773,69,45.98962,69,46.5ZM94.7998,20C93.28223,20,92,19.084,92,18V6.27L108.47559,20Z"></path><path d="M61.2088,68.0368l-.02618.02618a4.03626,4.03626,0,0,0,0,5.709l23.04492,23.0459a4.03744,4.03744,0,0,0,5.709,0l2.88086-2.88037V93.937a4.03626,4.03626,0,0,0,0-5.709L69.77246,65.18213a4.03744,4.03744,0,0,0-5.709,0l-.02655.02655-4.285-4.28516a22.53173,22.53173,0,1,0-2.82806,2.82813Zm5.73553-.02606,23.04492,23.0459a.04115.04115,0,0,1,0,.05176l-2.93359,2.88086L64.01074,70.8916ZM42.5,65A18.5,18.5,0,1,1,61,46.5,18.52065,18.52065,0,0,1,42.5,65Z"></path><path d="M52.60059,41.80078a2.001,2.001,0,0,0-2.7998-.40137L40.85742,48.1001l-2.166-3.43066a2,2,0,0,0-3.38281,2.13477l3.32217,5.263a2.03735,2.03735,0,0,0,2.89072.53336l10.67773-8A2.00035,2.00035,0,0,0,52.60059,41.80078Z"></path></svg>