<svg height='100px' width='100px'  fill="#4D4D4D" xmlns="http://www.w3.org/2000/svg" xmlns:xlink="http://www.w3.org/1999/xlink" version="1.1" x="0px" y="0px" viewBox="0 0 64 64" style="enable-background:new 0 0 64 64;" xml:space="preserve"><path d="M41,29.4c5-2.8,8.1-7.9,8-13.5c-0.1-4.9-2.5-9.5-6.6-12.3c-0.5-0.3-1.1-0.2-1.4,0.3c-0.3,0.5-0.2,1.1,0.3,1.4  c3.5,2.4,5.7,6.4,5.8,10.6c0.1,5-2.8,9.6-7.5,12c-0.3,0.2-0.5,0.5-0.5,0.9v2.3H29v-2.3c0-0.4-0.2-0.7-0.6-0.9  c-4.6-2.2-7.4-6.8-7.4-11.8c0-3.6,1.5-7,4.1-9.5c2.7-2.5,6.1-3.7,9.7-3.5c0.7,0,1.3,0.1,1.9,0.3c0.5,0.1,1.1-0.2,1.2-0.8  c0.1-0.5-0.2-1.1-0.8-1.2c-0.7-0.2-1.5-0.3-2.3-0.3c-4.2-0.3-8.2,1.2-11.2,4.1C20.7,8,19,12,19,16.1c0,5.6,3,10.6,8,13.3v1.9  c0,1,0.8,1.8,1.8,1.8H29V50c0,0.6,0.4,1,1,1s1-0.4,1-1V33.1h6v8.5l-1.7,1.7c-0.4,0.4-0.4,1,0,1.4l1.3,1.3l-1.3,1.3  c-0.4,0.4-0.4,1,0,1.4l1.3,1.3l-1.3,1.3c-0.4,0.4-0.4,1,0,1.4l1.3,1.3l-1.3,1.3c-0.4,0.4-0.4,1,0,1.4l1.3,1.3L34,60.6l-3-3v-3.5  c0-0.6-0.4-1-1-1s-1,0.4-1,1V58c0,0.3,0.1,0.5,0.3,0.7l4,4c0.2,0.2,0.5,0.3,0.7,0.3s0.5-0.1,0.7-0.3l4-4c0.4-0.4,0.4-1,0-1.4  L37.4,56l1.3-1.3c0.4-0.4,0.4-1,0-1.4L37.4,52l1.3-1.3c0.4-0.4,0.4-1,0-1.4L37.4,48l1.3-1.3c0.4-0.4,0.4-1,0-1.4L37.4,44l1.3-1.3  c0.2-0.2,0.3-0.4,0.3-0.7v-8.9h0.2c1,0,1.8-0.8,1.8-1.8V29.4z"></path><path d="M37,8c0-1.7-1.3-3-3-3s-3,1.3-3,3s1.3,3,3,3S37,9.7,37,8z M34,9c-0.6,0-1-0.4-1-1s0.4-1,1-1s1,0.4,1,1S34.6,9,34,9z"></path><path d="M5.5,26c0-0.6-0.4-1-1-1H3v-6h1.5c0.5,0,0.9-0.3,1-0.8c0.4-1.8,1.1-3.6,2.2-5.3c0.3-0.4,0.2-0.9-0.1-1.3l-1.1-1.1l4.3-4.3  l1.1,1.1c0.3,0.3,0.8,0.4,1.2,0.1c1.6-1,3.4-1.7,5.2-2.1C18.7,5.4,19,5,19,4.5V3h4.8c0.6,0,1-0.4,1-1s-0.4-1-1-1h-5  c-1,0-1.8,0.8-1.8,1.8v0.9c-1.5,0.4-3,1-4.3,1.7L12,4.8c0,0-0.1-0.1-0.1-0.1C11.1,4.1,10,4.1,9.4,4.8L4.9,9.3c0,0-0.1,0.1-0.1,0.1  c-0.6,0.8-0.6,1.9,0.1,2.5l0.6,0.6C4.7,14,4.1,15.5,3.7,17H2.8c-1,0-1.8,0.8-1.8,1.8v6.4c0,1,0.8,1.8,1.8,1.8h1.7  C5.1,27,5.5,26.6,5.5,26z"></path><path d="M26,38.6c-0.6,0-1,0.4-1,1v1.5h-6v-1.5c0-0.5-0.3-0.9-0.8-1c-1.8-0.4-3.6-1.1-5.3-2.2c-0.4-0.3-0.9-0.2-1.3,0.1l-1.1,1.1  l-4.3-4.3l1.1-1.1c0.3-0.3,0.4-0.8,0.2-1.2c-0.4-0.7-0.8-1.5-1.1-2.3c-0.2-0.5-0.8-0.7-1.3-0.5c-0.5,0.2-0.7,0.8-0.5,1.3  c0.3,0.6,0.6,1.2,0.9,1.8l-0.7,0.7c0,0-0.1,0.1-0.1,0.1c-0.6,0.8-0.6,1.9,0.1,2.5l4.5,4.5c0,0,0.1,0.1,0.1,0.1  c0.8,0.6,1.9,0.6,2.5-0.1l0.6-0.6c1.4,0.8,2.9,1.4,4.5,1.8v0.9c0,1,0.8,1.8,1.8,1.8h6.4c1,0,1.8-0.8,1.8-1.8v-1.7  C27,39,26.6,38.6,26,38.6z"></path><path d="M61.4,49h-1c-0.1-0.3-0.2-0.6-0.4-0.9l0.7-0.7c0.3-0.3,0.4-0.7,0.4-1.1c0-0.4-0.2-0.8-0.4-1.1l-2-2c-0.6-0.6-1.6-0.6-2.2,0  l-0.7,0.7c-0.3-0.1-0.6-0.3-0.9-0.4v-1c0-0.9-0.7-1.6-1.6-1.6c-0.6,0-1,0.4-1,1c0,0.4,0.2,0.8,0.6,0.9v1.4c0,0.4,0.3,0.8,0.7,1  c0.6,0.2,1.3,0.4,1.9,0.8c0.4,0.2,0.9,0.2,1.2-0.2l0.9-0.9l1.4,1.4l-0.9,0.9c-0.3,0.3-0.4,0.9-0.1,1.3c0.3,0.5,0.6,1.1,0.8,1.8  c0.1,0.4,0.5,0.8,1,0.8H61v2h-1.3c-0.4,0-0.8,0.3-1,0.7c-0.2,0.6-0.4,1.3-0.8,1.9c-0.2,0.4-0.2,0.9,0.2,1.2l0.9,0.9l-1.4,1.4  l-0.9-0.9c-0.3-0.3-0.9-0.4-1.3-0.1c-0.5,0.3-1.1,0.6-1.8,0.8c-0.4,0.1-0.8,0.5-0.8,1v1.3h-2v-1.3c0-0.4-0.3-0.8-0.7-1  c-0.6-0.2-1.3-0.4-1.9-0.8c-0.4-0.2-0.9-0.2-1.2,0.2l-0.9,0.9l-1.4-1.4l0.9-0.9c0.3-0.3,0.4-0.9,0.1-1.3c-0.3-0.5-0.6-1.1-0.8-1.8  c-0.1-0.4-0.5-0.8-1-0.8h-1.3v-2h1.3c0.4,0,0.8-0.3,1-0.7c0.2-0.6,0.4-1.3,0.8-1.9c0.2-0.4,0.2-0.9-0.2-1.2l-0.9-0.9l1.4-1.4  l0.9,0.9c0.3,0.3,0.9,0.4,1.3,0.1c0.5-0.3,1.1-0.6,1.8-0.8c0.5-0.1,0.9-0.7,0.7-1.2c-0.1-0.5-0.7-0.9-1.2-0.7  c-0.6,0.2-1.2,0.4-1.7,0.6l-0.7-0.7c-0.3-0.3-0.7-0.4-1.1-0.4c0,0,0,0,0,0c-0.4,0-0.8,0.2-1.1,0.4l-2,2c-0.3,0.3-0.4,0.7-0.4,1.1  c0,0.4,0.2,0.8,0.4,1.1l0.7,0.7c-0.1,0.3-0.3,0.6-0.4,0.9h-1c-0.9,0-1.6,0.7-1.6,1.6v2.8c0,0.9,0.7,1.6,1.6,1.6h1  c0.1,0.3,0.2,0.6,0.4,0.9l-0.7,0.7c-0.3,0.3-0.4,0.7-0.4,1.1c0,0.4,0.2,0.8,0.4,1.1l2,2c0.3,0.3,0.7,0.4,1.1,0.4c0,0,0,0,0,0  c0.4,0,0.8-0.2,1.1-0.4l0.7-0.7c0.3,0.1,0.6,0.3,0.9,0.4v1c0,0.9,0.7,1.6,1.6,1.6h2.8c0.9,0,1.6-0.7,1.6-1.6v-1  c0.3-0.1,0.6-0.2,0.9-0.4l0.7,0.7c0.6,0.6,1.6,0.6,2.2,0l2-2c0.3-0.3,0.4-0.7,0.4-1.1c0-0.4-0.2-0.8-0.4-1.1L60,55.9  c0.1-0.3,0.3-0.6,0.4-0.9h1c0.9,0,1.6-0.7,1.6-1.6v-2.8C63,49.7,62.3,49,61.4,49z"></path><path d="M52,51c0.6,0,1,0.4,1,1c0,0.6,0.4,1,1,1s1-0.4,1-1c0-1.7-1.3-3-3-3s-3,1.3-3,3c0,0.9,0.4,1.8,1.2,2.4  c0.2,0.1,0.4,0.2,0.6,0.2c0.3,0,0.6-0.1,0.8-0.4c0.3-0.4,0.3-1.1-0.2-1.4C51.1,52.6,51,52.3,51,52C51,51.4,51.4,51,52,51z"></path><path d="M18,21c-0.6,0-1,0.4-1,1c0,1.8,1,3.4,2.5,4.3c0.2,0.1,0.3,0.1,0.5,0.1c0.3,0,0.7-0.2,0.9-0.5c0.3-0.5,0.1-1.1-0.4-1.4  C19.6,24.1,19,23.1,19,22C19,21.4,18.6,21,18,21z"></path><path d="M37.6,24.3c-0.5,0.2-1.1,0.4-1.7,0.5c-0.5,0.1-0.9,0.6-0.8,1.1c0.1,0.5,0.5,0.9,1,0.9c0,0,0.1,0,0.1,0  c0.8-0.1,1.6-0.4,2.3-0.7c0.5-0.2,0.7-0.8,0.4-1.3C38.6,24.3,38,24.1,37.6,24.3z"></path><path d="M42.8,22.6c1.5-1.9,2.2-4.1,2.2-6.6c0-0.6-0.4-1-1-1s-1,0.4-1,1c0,2-0.6,3.8-1.8,5.4c-0.3,0.4-0.3,1.1,0.2,1.4  c0.2,0.1,0.4,0.2,0.6,0.2C42.3,23,42.6,22.9,42.8,22.6z"></path><path d="M13.4,9.7l-1.8,1.5c-0.4,0.4-0.5,1-0.1,1.4c0.2,0.2,0.5,0.4,0.8,0.4c0.2,0,0.5-0.1,0.6-0.2l1.8-1.5c0.4-0.4,0.5-1,0.1-1.4  C14.4,9.4,13.8,9.4,13.4,9.7z"></path><path d="M9.7,15.1c-0.5-0.2-1.1,0-1.3,0.5C7.5,17.6,7,19.8,7,22c0,2.8,0.7,5.5,2.1,7.7c0.2,0.3,0.5,0.5,0.9,0.5c0.2,0,0.4,0,0.5-0.1  c0.5-0.3,0.6-0.9,0.3-1.4C9.6,26.7,9,24.4,9,22c0-1.8,0.4-3.8,1.2-5.6C10.4,15.9,10.2,15.3,9.7,15.1z"></path></svg>