<svg height='100px' width='100px'  fill="#4D4D4D" xmlns="http://www.w3.org/2000/svg" xmlns:xlink="http://www.w3.org/1999/xlink" version="1.1" x="0px" y="0px" viewBox="0 0 512 512" enable-background="new 0 0 512 512" xml:space="preserve"><g><path d="M232.2,151.3c-10.4-10.4-27.3-10.4-37.6,0l-43.2,43.2c-10.4,10.4-10.4,27.3,0,37.6l128.5,128.5c10.4,10.4,27.3,10.4,37.6,0   l43.2-43.2c10.4-10.4,10.4-27.3,0-37.6L232.2,151.3z"></path><path d="M379.2,256l125.1-125.1c10.9-10.9,10.1-29-1.3-40.4L421.5,9C410-2.5,391.9-3.1,381.1,7.7L256,132.8L130.9,7.7   C120.1-3.1,102-2.5,90.5,9L9,90.5C-2.5,102-3.1,120.1,7.7,130.9L132.8,256L7.7,381.1C-3.1,391.9-2.5,410,9,421.5l81.4,81.4   c11.5,11.5,29.6,12.1,40.4,1.3l125.2-125l125.1,125.1c10.8,10.8,28.9,10.2,40.4-1.3l53.6-53.6l27.9-27.8   c11.5-11.5,12.1-29.6,1.3-40.4L379.2,256z M391.7,18.3c4.9-4.9,13.5-4.3,19.2,1.3l81.4,81.4c5.7,5.7,6.2,14.3,1.3,19.2l-125,125.2   L358,234.8l2.7-2.7c10.4-10.4,10.4-27.3,0-37.6l-43.2-43.2c-10.4-10.4-27.3-10.4-37.6,0l-2.7,2.7l-10.6-10.6L391.7,18.3z    M120.3,493.7c-4.9,4.9-13.5,4.3-19.2-1.3L19.7,411c-5.7-5.7-6.2-14.3-1.3-19.2l125.1-125.1l10.6,10.6l-2.7,2.7   c-10.4,10.4-10.4,27.3,0,37.6l43.2,43.2c5.2,5.2,12,7.8,18.8,7.8c12.1,0,18.4-7.4,21.5-10.4l10.6,10.6L120.3,493.7z M492.3,410.9   l-81.4,81.4c-5.7,5.7-14.3,6.2-19.2,1.3c-1.8-1.8-368.3-368.3-373.4-373.4c-4.9-4.9-4.3-13.5,1.3-19.2L101,19.6   c5.7-5.7,14.3-6.3,19.2-1.3c2.3,2.3,368.5,368.5,373.4,373.4C498.6,396.6,498,405.2,492.3,410.9z"></path></g></svg>