<svg height='100px' width='100px'  fill="#4D4D4D" xmlns="http://www.w3.org/2000/svg" xmlns:xlink="http://www.w3.org/1999/xlink" xml:space="preserve" style="shape-rendering:geometricPrecision;text-rendering:geometricPrecision;image-rendering:optimizeQuality;" viewBox="0 0 1.70666 1.70666" x="0px" y="0px" fill-rule="evenodd" clip-rule="evenodd"><defs><style type="text/css">
   
    .fil0 {fill:#4D4D4D}
   
  </style></defs><g><g><g><path class="fil0" d="M1.42222 1.51364l-0.345402 0c-0.0112205,0 -0.0203228,-0.00909449 -0.0203228,-0.0203228l0 -0.162539c0,-0.0112205 0.00909449,-0.0203268 0.0203228,-0.0203268l0.345402 0c0.0112205,0 0.0203268,0.00909449 0.0203268,0.0203268l0 0.162539c0,0.0112205 -0.0091063,0.0203228 -0.0203268,0.0203228zm-0.325075 -0.0406496l0.30476 0 0 -0.121898 -0.30476 0 0 0.121898z"></path></g><g><path class="fil0" d="M1.07682 1.51364l-0.345402 0c-0.0112205,0 -0.0203228,-0.00909449 -0.0203228,-0.0203228l0 -0.162539c0,-0.0112205 0.00909449,-0.0203268 0.0203228,-0.0203268l0.345402 0c0.0112205,0 0.0203268,0.00909449 0.0203268,0.0203268l0 0.162539c0,0.0112205 -0.0091063,0.0203228 -0.0203268,0.0203228zm-0.325075 -0.0406496l0.30476 0 0 -0.121898 -0.30476 0 0 0.121898z"></path></g><g><path class="fil0" d="M0.731421 1.51364l-0.345402 0c-0.0112205,0 -0.0203268,-0.00909449 -0.0203268,-0.0203228l0 -0.162539c0,-0.0112205 0.00909449,-0.0203268 0.0203268,-0.0203268l0.345402 0c0.0112205,0 0.0203268,0.00909449 0.0203268,0.0203268l0 0.162539c0,0.0112205 -0.0091063,0.0203228 -0.0203268,0.0203228zm-0.325079 -0.0406496l0.304764 0 0 -0.121898 -0.304764 0 0 0.121898z"></path></g><g><path class="fil0" d="M0.38602 1.51364l-0.345402 0c-0.0112205,0 -0.0203268,-0.00909449 -0.0203268,-0.0203228l0 -0.162539c0,-0.0112205 0.00909449,-0.0203268 0.0203268,-0.0203268l0.345402 0c0.0112205,0 0.0203228,0.00909449 0.0203228,0.0203268l0 0.162539c0,0.0112205 -0.00909055,0.0203228 -0.0203228,0.0203228zm-0.325079 -0.0406496l0.304764 0 0 -0.121898 -0.304764 0 0 0.121898z"></path></g><g><path class="fil0" d="M1.66606 1.35109l-0.345402 0c-0.0112205,0 -0.0203268,-0.00909449 -0.0203268,-0.0203268l0 -0.162539c0,-0.0112205 0.00909449,-0.0203228 0.0203268,-0.0203228l0.345402 7.87402e-006c0.0112205,0 0.0203228,0.00909449 0.0203228,0.0203268l0 0.162539c-7.87402e-006,0.0112205 -0.00910236,0.020315 -0.0203228,0.020315zm-0.325087 -0.0406417l0.30476 0 0 -0.121898 -0.30476 0 0 0.121898z"></path></g><g><path class="fil0" d="M1.32065 1.35109l-0.345406 0c-0.0112205,0 -0.0203228,-0.00909449 -0.0203228,-0.0203268l0 -0.162539c0,-0.0112205 0.00909449,-0.0203228 0.0203228,-0.0203228l0.345406 7.87402e-006c0.0112205,0 0.0203228,0.00909449 0.0203228,0.0203268l0 0.162539c-7.87402e-006,0.0112205 -0.00910236,0.020315 -0.0203228,0.020315zm-0.325091 -0.0406417l0.304764 0 0 -0.121898 -0.304764 0 0 0.121898z"></path></g><g><path class="fil0" d="M0.975248 1.35109l-0.345402 0c-0.0112205,0 -0.0203228,-0.00909449 -0.0203228,-0.0203268l0 -0.162539c0,-0.0112205 0.00909449,-0.0203228 0.0203228,-0.0203228 0.0112323,0 0.0203268,0.00909449 0.0203268,0.0203228l0 0.142224 0.304752 0 0 -0.142224c0,-0.0112205 0.00909449,-0.0203228 0.0203228,-0.0203228 0.0112323,0 0.0203268,0.00909449 0.0203268,0.0203228l0 0.162539c-1.1811e-005,0.0112323 -0.0091063,0.0203268 -0.0203268,0.0203268z"></path></g><g><path class="fil0" d="M0.629846 1.35109l-0.345402 0c-0.0112205,0 -0.0203228,-0.00909449 -0.0203228,-0.0203268l0 -0.162539c0,-0.0112205 0.00909449,-0.0203228 0.0203228,-0.0203228l0.345402 7.87402e-006c0.0112205,0 0.0203268,0.00909449 0.0203268,0.0203268l0 0.162539c-1.1811e-005,0.0112205 -0.0091063,0.020315 -0.0203268,0.020315zm-0.325087 -0.0406417l0.304764 0 0 -0.121898 -0.304764 0 0 0.121898z"></path></g><g><path class="fil0" d="M1.42222 1.18855l-0.345402 0c-0.0112205,0 -0.0203228,-0.00909449 -0.0203228,-0.0203268l0 -0.162539c0,-0.0112205 0.00909449,-0.0203228 0.0203228,-0.0203228l0.345402 7.87402e-006c0.0112205,0 0.0203268,0.00909449 0.0203268,0.0203268l0 0.162539c0,0.0112205 -0.0091063,0.020315 -0.0203268,0.020315zm-0.325075 -0.0406417l0.30476 0 0 -0.121898 -0.30476 0 0 0.121898z"></path></g><g><path class="fil0" d="M0.731421 1.18855l-0.690803 0c-0.0112205,0 -0.0203268,-0.00909449 -0.0203268,-0.0203268l0 -0.162539c0,-0.0112205 0.00909449,-0.0203228 0.0203268,-0.0203228l0.690803 7.87402e-006c0.0112205,0 0.0203268,0.00909449 0.0203268,0.0203268l0 0.162539c0,0.0112205 -0.0091063,0.020315 -0.0203268,0.020315zm-0.67048 -0.0406417l0.650165 0 0 -0.121898 -0.650165 0 0 0.121898z"></path></g><g><path class="fil0" d="M1.54413 1.6762l-0.690807 0c-0.0112205,0 -0.0203228,-0.00909449 -0.0203228,-0.0203228l0 -0.162571c0,-0.0112205 0.00909449,-0.0203268 0.0203228,-0.0203268l0.690807 1.1811e-005c0.0112205,0 0.0203228,0.00909449 0.0203228,0.0203268l0 0.162567c0,0.011189 -0.00910236,0.020315 -0.0203228,0.020315zm-0.67048 -0.0406378l0.650165 0 0 -0.121929 -0.650165 7.87402e-006 0 0.121921z"></path></g><g><path class="fil0" d="M0.853319 1.6762l-0.345402 0c-0.0112205,0 -0.0203228,-0.00909449 -0.0203228,-0.0203228l0 -0.162571c0,-0.0112205 0.00909449,-0.0203268 0.0203228,-0.0203268l0.345402 1.1811e-005c0.0112205,0 0.0203268,0.00909449 0.0203268,0.0203268l0 0.162567c0,0.011189 -0.0091063,0.020315 -0.0203268,0.020315zm-0.325075 -0.0406378l0.30476 0 0 -0.121929 -0.30476 7.87402e-006 0 0.121921z"></path></g><g><path class="fil0" d="M0.507917 1.6762l-0.345402 0c-0.0112205,0 -0.0203228,-0.00909449 -0.0203228,-0.0203228l0 -0.162571c0,-0.0112205 0.00909449,-0.0203268 0.0203228,-0.0203268l0.345402 1.1811e-005c0.0112205,0 0.0203268,0.00909449 0.0203268,0.0203268l0 0.162567c0,0.011189 -0.00909449,0.020315 -0.0203268,0.020315zm-0.325075 -0.0406378l0.30476 0 0 -0.121929 -0.30476 7.87402e-006 0 0.121921z"></path></g><g><path class="fil0" d="M0.629846 1.02601l-0.345402 0c-0.0112205,0 -0.0203228,-0.00909449 -0.0203228,-0.0203268l0 -0.162535c0,-0.0112205 0.00909449,-0.0203268 0.0203228,-0.0203268l0.345402 1.1811e-005c0.0112205,0 0.0203268,0.00909449 0.0203268,0.0203228l0 0.162539c-1.1811e-005,0.0112205 -0.0091063,0.020315 -0.0203268,0.020315zm-0.325087 -0.0406417l0.304764 0 0 -0.121898 -0.304764 0 0 0.121898z"></path></g><g><path class="fil0" d="M1.42222 0.863472l-0.345402 0c-0.0112205,0 -0.0203228,-0.00909449 -0.0203228,-0.0203228l0 -0.162539c0,-0.0112205 0.00909449,-0.0203268 0.0203228,-0.0203268l0.345402 0c0.0112205,0 0.0203268,0.00909449 0.0203268,0.0203268l0 0.162539c0,0.0112283 -0.0091063,0.0203228 -0.0203268,0.0203228zm-0.325075 -0.0406378l0.30476 0 0 -0.121902 -0.30476 0 0 0.121902z"></path></g><g><path class="fil0" d="M0.38602 0.863472l-0.345402 0c-0.0112205,0 -0.0203268,-0.00909449 -0.0203268,-0.0203228l0 -0.162539c0,-0.0112205 0.00909449,-0.0203268 0.0203268,-0.0203268l0.345402 0c0.0112205,0 0.0203228,0.00909449 0.0203228,0.0203268l0 0.162539c0,0.0112283 -0.00909055,0.0203228 -0.0203228,0.0203228zm-0.325079 -0.0406378l0.304764 0 0 -0.121902 -0.304764 0 0 0.121902z"></path></g><g><path class="fil0" d="M0.828937 1.18855l-0.0975157 0c-0.0112205,0 -0.0203228,-0.00909449 -0.0203228,-0.0203268l0 -0.162539c0,-0.0112205 0.00909449,-0.0203228 0.0203228,-0.0203228l0.0866929 7.87402e-006c0.0106811,0 0.0195709,0.00832283 0.0202638,0.0189724l0.0108228 0.162539c0.000405512,0.00559449 -0.00158661,0.0111417 -0.00541339,0.0152402 -0.00386614,0.00411811 -0.00922441,0.00642913 -0.0148504,0.00642913zm-0.077189 -0.0406417l0.0555 0 -0.00812598 -0.121898 -0.047374 0 0 0.121898z"></path></g><g><path class="fil0" d="M1.07682 1.18855l-0.191551 0c-0.00794488,0 -0.0151575,-0.00459843 -0.0184921,-0.0118228 -0.00330709,-0.0072126 -0.00212598,-0.0156929 0.00303937,-0.0217165l0.139315 -0.162539c0.00387795,-0.00449606 0.00950394,-0.00711024 0.0154213,-0.00711024l0.052248 7.87402e-006c0.0112205,0 0.0203268,0.00909449 0.0203268,0.0203268l0 0.162539c1.9685e-005,0.0112205 -0.00908661,0.020315 -0.0203071,0.020315zm-0.147382 -0.0406417l0.127087 0 0 -0.121898 -0.0225827 0 -0.104504 0.121898z"></path></g><g><path class="fil0" d="M1.66606 1.02601l-0.641469 0c-0.00794488,0 -0.0151575,-0.00459843 -0.0184646,-0.0118189 -0.00330315,-0.0072126 -0.00212598,-0.0156969 0.00301181,-0.0217205l0.0387087 -0.0451654 -0.0855118 -0.0699606c-0.00470866,-0.00387402 -0.0074252,-0.00962992 -0.0074252,-0.0157165l0 -0.0184921c0,-0.0112205 0.00909449,-0.0203268 0.0203228,-0.0203268l0.690795 2.3622e-005c0.0112205,0 0.0203268,0.00909449 0.0203268,0.0203228l0 0.162539c1.9685e-005,0.0112205 -0.0090748,0.020315 -0.0202953,0.020315zm-0.597307 -0.0406417l0.57698 0 0 -0.121898 -0.636165 0 0.0801299 0.065563c0.00422047,0.00344882 0.00691732,0.00847244 0.00737402,0.0139488 0.000488189,0.00546063 -0.00125984,0.010874 -0.00482283,0.0150118l-0.0234961 0.027374z"></path></g><g><path class="fil0" d="M0.975248 0.881937c-0.00459449,0 -0.00917323,-0.00155906 -0.0128858,-0.00457874l-0.0225551 -0.0184921c-0.00665354,-0.00543307 -0.00917323,-0.0144764 -0.00626378,-0.0225551 0.00287795,-0.00809843 0.0105472,-0.0134882 0.0191339,-0.0134882l0.0225709 1.1811e-005c0.0112205,0 0.0203268,0.00909449 0.0203268,0.0203228l0 0.0184961c0,0.0078622 -0.00452756,0.0149921 -0.011626,0.0183504 -0.00280709,0.00131102 -0.00576772,0.00193307 -0.00870079,0.00193307z"></path></g><g><path class="fil0" d="M0.818114 1.02601l-0.188268 0c-0.0112205,0 -0.0203228,-0.00909449 -0.0203228,-0.0203268l0 -0.162535c0,-0.0112205 0.00909449,-0.0203268 0.0203228,-0.0203268l0.0711063 1.1811e-005c0.00770079,0 0.014752,0.0043622 0.0182008,0.0112205l0.0262953 0.0525906 0.0722165 0.0180551c0.00855512,0.00212992 0.0147795,0.00955512 0.0153386,0.0183543l0.00541339 0.0812795c0.000377953,0.00559449 -0.00161811,0.0111378 -0.00543307,0.0152362 -0.00388583,0.00412205 -0.00924409,0.00644094 -0.0148701,0.00644094zm-0.167953 -0.0406417l0.146264 0 -0.00299213 -0.0448386 -0.0669134 -0.0167441c-0.00575984,-0.0014252 -0.0106024,-0.00529921 -0.0132441,-0.0106299l-0.0248425 -0.0497441 -0.0382402 7.87402e-006 0 0.121949 -3.14961e-005 0z"></path></g><g><path class="fil0" d="M0.700925 0.863472l-0.314906 0c-0.0112205,0 -0.0203268,-0.00909449 -0.0203268,-0.0203228l0 -0.162539c0,-0.0112205 0.00909449,-0.0203268 0.0203268,-0.0203268l0.233654 0c0.00770079,0 0.014752,0.00436614 0.0182008,0.0112205l0.0812795 0.162539c0.00315354,0.00629528 0.00279921,0.0137835 -0.000885827,0.0197559 -0.0036811,0.00597244 -0.0102835,0.00967323 -0.0173425,0.00967323zm-0.294583 -0.0406378l0.261756 0 -0.0609646 -0.121902 -0.200791 0 0 0.121902z"></path></g><g><path class="fil0" d="M1.07682 0.863472l-0.124157 0c-0.00467717,0 -0.00925591,-0.00161811 -0.0128661,-0.00457874l-0.0993465 -0.0812795c-0.00708268,-0.0057874 -0.00942126,-0.0156142 -0.00570866,-0.0239764l0.0361457 -0.0812795c0.00325591,-0.00732283 0.0105472,-0.0120551 0.0185433,-0.0120551l0.18739 -1.9685e-005c0.0112205,0 0.0203268,0.00909449 0.0203268,0.0203268l0 0.162539c0,0.0112283 -0.0091063,0.0203228 -0.0203268,0.0203228zm-0.116913 -0.0406378l0.0965984 0 0 -0.121902 -0.153882 0 -0.0244331 0.0550433 0.0817165 0.0668583z"></path></g><g><path class="fil0" d="M0.833028 1.24952c-0.00215748,0 -0.00430315,-0.000326772 -0.00640945,-0.00104724 -0.00783465,-0.00261417 -0.0133268,-0.00969685 -0.0138661,-0.0179252l-0.00407087 -0.0609646c-0.000720472,-0.0112008 0.00772441,-0.0208661 0.0189213,-0.0216181 0.0111732,-0.000700787 0.0208661,0.00772047 0.0216181,0.0189213l0.000751969 0.0113031 0.0198701 -0.0231732c0.00729134,-0.00850394 0.0201299,-0.0095 0.0286339,-0.00220866 0.00850394,0.00729528 0.0095,0.0201339 0.00217717,0.0286378l-0.0522165 0.0609646c-0.00394488,0.00457874 -0.00962205,0.00711024 -0.0154094,0.00711024z"></path></g><g><path class="fil0" d="M0.670457 0.558709c-0.00519685,0 -0.0104173,-0.00199213 -0.014374,-0.00594882l-0.203177 -0.203181c-0.00794488,-0.00791339 -0.00794488,-0.0207795 0,-0.0287165 0.00794488,-0.00793307 0.0207835,-0.00794488 0.0287165,0l0.203177 0.203181c0.00794488,0.00794488 0.00794488,0.0208031 0,0.0287165 -0.00394488,0.00395669 -0.00911417,0.00594882 -0.0143425,0.00594882z"></path></g><g><path class="fil0" d="M0.792386 0.558709c-0.00519685,0 -0.0104173,-0.00199213 -0.014374,-0.00594882 -0.00794488,-0.00791339 -0.00794488,-0.0207835 0,-0.0287165l0.203177 -0.203181c0.00794488,-0.00794488 0.0208031,-0.00794488 0.0287205,0 0.00794488,0.00794488 0.00794488,0.0208031 0,0.0287165l-0.203181 0.203181c-0.00395669,0.00395669 -0.00914567,0.00594882 -0.0143425,0.00594882z"></path></g><g><path class="fil0" d="M0.731421 0.457106c-0.0112205,0 -0.0203228,-0.00909449 -0.0203228,-0.0203268l0 -0.365728c0,-0.0112205 0.00909449,-0.0203228 0.0203228,-0.0203228 0.0112323,0 0.0203268,0.00909449 0.0203268,0.0203228l0 0.365728c0,0.0112323 -0.0091063,0.0203268 -0.0203268,0.0203268z"></path></g><g><path class="fil0" d="M1.54413 0.355531c-0.0896339,0 -0.162539,-0.0729173 -0.162539,-0.162539 0,-0.089622 0.0729173,-0.162539 0.162539,-0.162539 0.0896181,0 0.162539,0.0729173 0.162539,0.162539 0,0.089622 -0.0728898,0.162539 -0.162539,0.162539zm0 -0.284437c-0.0672126,0 -0.121902,0.054689 -0.121902,0.121898 0,0.0672126 0.054689,0.121898 0.121902,0.121898 0.0672087,0 0.121898,-0.054685 0.121898,-0.121898 0,-0.0672087 -0.0546693,-0.121898 -0.121898,-0.121898z"></path></g><g><path class="fil0" d="M0.14222 0.416484c-0.0784291,0 -0.142224,-0.0637913 -0.142224,-0.14222 0,-0.0784331 0.0637953,-0.142224 0.142224,-0.142224 0.0784016,0 0.142224,0.063811 0.142224,0.142224 0,0.0784094 -0.063811,0.14222 -0.142224,0.14222zm0 -0.243815c-0.0560394,0 -0.101571,0.045563 -0.101571,0.101571 0,0.0560433 0.0455394,0.101575 0.101571,0.101575 0.0560118,0 0.101575,-0.045563 0.101575,-0.101575 1.1811e-005,-0.0560079 -0.045563,-0.101571 -0.101575,-0.101571z"></path></g></g></g></svg>