<svg height='100px' width='100px'  fill="#4D4D4D" xmlns="http://www.w3.org/2000/svg" viewBox="0 0 32 32" x="0px" y="0px"><title>cloud computing network-28</title><g data-name="Layer 28"><path d="M16.02393,11.00391a.93332.93332,0,0,0-.812.34277,2.90365,2.90365,0,0,1-4.32568-.001A.9183.9183,0,0,0,10.168,11H9.832a.92128.92128,0,0,0-.71973.34668,2.76427,2.76427,0,0,1-2.16211.96582,2.766,2.766,0,0,1-2.1626-.96582.93581.93581,0,0,0-.81836-.3418.92393.92393,0,0,0-.72363.50293C3.19482,11.60742,2,14.00391,2,18.78711,2,25.53125,7.69287,30,10,30s8-4.46875,8-11.21289c0-4.7832-1.19482-7.17969-1.24512-7.27832A.92815.92815,0,0,0,16.02393,11.00391ZM10,29c-1.74512,0-7-4.124-7-10.21289a17.3009,17.3009,0,0,1,1.0874-6.71875A3.79411,3.79411,0,0,0,6.9502,13.3125,3.61893,3.61893,0,0,0,9.832,12l.27441-.02832a3.90822,3.90822,0,0,0,5.80615.09668A17.3009,17.3009,0,0,1,17,18.78711C17,24.876,11.74512,29,10,29Z"></path><path d="M12.09375,18.48535,9.12549,21.4541,7.90625,20.23438a.49995.49995,0,0,0-.707.707L8.772,22.51465a.49982.49982,0,0,0,.707,0l3.32178-3.32227a.49995.49995,0,0,0-.707-.707Z"></path><path d="M10,15.5a5,5,0,1,0,5,5A5.00589,5.00589,0,0,0,10,15.5Zm0,9a4,4,0,1,1,4-4A4.00427,4.00427,0,0,1,10,24.5Z"></path><path d="M28.5,23a1.49758,1.49758,0,0,0-1.4079,1H25V17.99243l.16309-.00024c.07715.00488.15625.00781.23535.00781a4.54828,4.54828,0,0,0,3.61816-1.793,4.77645,4.77645,0,0,0,.81738-4.16016,4.58264,4.58264,0,0,0-5.78027-3.2168,5.945,5.945,0,0,0-.35937-3.52734,5.40851,5.40851,0,0,0-3.09668-2.9502A5.51261,5.51261,0,0,0,13.89648,4.7207a4.52327,4.52327,0,0,0-2.90186-1.05176A4.64938,4.64938,0,0,0,6.39258,8.35449c0,.08594.00244.17188.00684.25586A3.8077,3.8077,0,0,0,4.16016,9.042a.49969.49969,0,1,0,.50684.86133A3.10712,3.10712,0,0,1,6.582,9.626a.74325.74325,0,0,0,.83691-.82617,3.68618,3.68618,0,0,1-.02637-.44531,3.64854,3.64854,0,0,1,3.60205-3.68555,3.54074,3.54074,0,0,1,2.46338,1,.73559.73559,0,0,0,.63281.19434.74525.74525,0,0,0,.53076-.38867A4.52743,4.52743,0,0,1,20.25391,3.292a4.45858,4.45858,0,0,1,2.52051,2.40234,4.84336,4.84336,0,0,1,.19824,3.333.7513.7513,0,0,0,.209.7666.73965.73965,0,0,0,.792.13184,3.58026,3.58026,0,0,1,4.89355,2.373,3.7875,3.7875,0,0,1-.6416,3.29688A3.55572,3.55572,0,0,1,25.39844,17c-.05957,0-.11914-.00293-.21777-.00684A.84766.84766,0,0,0,25.09473,17H19.75a.5.5,0,0,0,0,1L21,17.99817V21.0921a1.5,1.5,0,1,0,1,0V17.99677l2-.00287V24.5a.49971.49971,0,0,0,.5.5h2.5921A1.49739,1.49739,0,1,0,28.5,23Zm-7,0a.5.5,0,1,1,.5-.5A.501.501,0,0,1,21.5,23Zm7,2a.5.5,0,1,1,.5-.5A.501.501,0,0,1,28.5,25Z"></path></g></svg>