<svg height='100px' width='100px'  fill="#4D4D4D" xmlns="http://www.w3.org/2000/svg" data-name="Layer 1" viewBox="0 0 64 64" x="0px" y="0px"><title>Training-disciplining- exercise- practice- school</title><path d="M61,2H11a1,1,0,0,0-1,1v9A6.99,6.99,0,0,0,5.377,24.242,5.712,5.712,0,0,0,2,29.349V43a1,1,0,0,0,1,1H19a1,1,0,0,0,1-1V38H61a1,1,0,0,0,1-1V3A1,1,0,0,0,61,2ZM5,19a5,5,0,1,1,5,5A5.006,5.006,0,0,1,5,19ZM18.421,31.708a1,1,0,0,0-.421.815V42H4V29.349C4,27.887,5.293,26,6.666,26H19a1.008,1.008,0,0,0,.372-.071l9.379-3.759A.91.91,0,0,1,30,23.014a.914.914,0,0,1-.383.742ZM60,36H20V33.04l10.776-7.654a2.91,2.91,0,0,0-2.769-5.073L18.807,24H14.889A6.989,6.989,0,0,0,12,12.3V4H60Z"></path><path d="M6,61a1,1,0,0,0,1,1H21a1,1,0,0,0,1-1,7.007,7.007,0,0,0-4.433-6.506,4.99,4.99,0,0,0-2.776-8.428A4.682,4.682,0,0,0,14,46,4.994,4.994,0,0,0,10.432,54.5,7.006,7.006,0,0,0,6,61Zm8-13a2.823,2.823,0,0,1,.47.04A2.978,2.978,0,0,1,17,51a3.015,3.015,0,0,1-3.013,3h-.055c-.031-.005-.063-.009-.094-.011A3,3,0,0,1,14,48Zm-1,8h2a5.008,5.008,0,0,1,4.9,4H8.1A5.008,5.008,0,0,1,13,56Z"></path><path d="M24,61a1,1,0,0,0,1,1H39a1,1,0,0,0,1-1,7.007,7.007,0,0,0-4.433-6.506,4.99,4.99,0,0,0-2.776-8.428A4.682,4.682,0,0,0,32,46,4.994,4.994,0,0,0,28.432,54.5,7.006,7.006,0,0,0,24,61Zm8-13a2.823,2.823,0,0,1,.47.04A2.978,2.978,0,0,1,35,51a3.015,3.015,0,0,1-3.013,3h-.055c-.031-.005-.063-.009-.094-.011A3,3,0,0,1,32,48Zm-1,8h2a5.008,5.008,0,0,1,4.9,4H26.1A5.008,5.008,0,0,1,31,56Z"></path><path d="M42,61a1,1,0,0,0,1,1H57a1,1,0,0,0,1-1,7.007,7.007,0,0,0-4.433-6.506,4.99,4.99,0,0,0-2.776-8.428A4.682,4.682,0,0,0,50,46,4.994,4.994,0,0,0,46.432,54.5,7.006,7.006,0,0,0,42,61Zm8-13a2.823,2.823,0,0,1,.47.04A2.978,2.978,0,0,1,53,51a3.015,3.015,0,0,1-3.013,3h-.055c-.031-.005-.063-.009-.094-.011A3,3,0,0,1,50,48Zm-1,8h2a5.008,5.008,0,0,1,4.9,4H44.1A5.008,5.008,0,0,1,49,56Z"></path><rect x="22" y="9" width="4" height="2"></rect><rect x="30" y="9" width="4" height="2"></rect><rect x="40" y="9" width="4" height="2"></rect><rect x="50" y="9" width="4" height="2"></rect><rect x="26" y="15" width="4" height="2"></rect><rect x="34" y="15" width="4" height="2"></rect><rect x="44" y="15" width="4" height="2"></rect><rect x="54" y="15" width="4" height="2"></rect><rect x="34" y="23" width="4" height="2"></rect><rect x="42" y="23" width="4" height="2"></rect><rect x="52" y="23" width="4" height="2"></rect><rect x="28" y="31" width="4" height="2"></rect><rect x="36" y="31" width="4" height="2"></rect><rect x="46" y="31" width="4" height="2"></rect></svg>