<svg height='100px' width='100px'  fill="#4D4D4D" xmlns="http://www.w3.org/2000/svg" xmlns:xlink="http://www.w3.org/1999/xlink" version="1.1" x="0px" y="0px" viewBox="0 0 100 100" enable-background="new 0 0 100 100" xml:space="preserve"><g><path d="M19.994,47.113c0.202,0.004,0.384-0.073,0.543-0.19c0.524,3.199,1.889,7.081,5.256,9.802c0,0,7.708,6.113,15.829-0.123   c3.288-2.74,4.616-6.597,5.121-9.766c0.178,0.16,0.391,0.276,0.631,0.277c0.721,0.002,1.693-1.035,2.742-5.064   c1.313-5.043,0.074-6.026-1.118-6.011c-0.17,0.002-0.339,0.025-0.5,0.058c0.005-0.034,0.008-0.053,0.008-0.053   c3.33-13.966-3.61-14.497-4.715-14.495c-0.094,0-0.145,0.004-0.145,0.004c-0.589-2.63-3.938-5.354-7.434-5.442   c-0.499-0.013-1.002,0.029-1.5,0.131c-1.244,0.257-2.902,0.343-4.594,0.34c-3.721-0.008-7.605-0.449-7.605-0.449   c-0.115,1.737,1.374,2.943,1.374,2.943c-8.471,5.167-4.949,16.92-4.949,16.92l-0.003,0.11c-0.238-0.071-0.283-0.067-0.557-0.069   c-1.189-0.009-2.417,0.983-1.108,6.012C18.31,46.044,19.275,47.098,19.994,47.113z"></path><path d="M58.438,65.736c-7.661-1.948-13.886-6.33-13.886-6.33l-4.857,15.359l0,0l-0.914,2.891l-0.014-0.04l-0.798,2.45   l-2.561-7.264c6.475-9.035-1.716-8.684-1.716-8.684s-8.191-0.352-1.716,8.684l-2.584,7.321l-0.79-2.475l-5.769-18.243   c0,0-6.225,4.382-13.886,6.33c-5.714,1.453-5.986,8.051-5.756,11.311l-0.026-0.006c0,0-0.066,4.534,0.664,6.373   c0,0,11.154,7.25,29.837,7.25l-0.01-0.422l0.036,0.422c18.683,0,29.837-7.25,29.837-7.25c0.73-1.84,0.664-6.373,0.664-6.373   C64.424,73.779,64.148,67.188,58.438,65.736z"></path><path d="M93.208,52.999c-3.47-1.632-5.236-1.959-5.358-2.024c-0.122-0.065-5-1.111-6.624-2.722l4.513,10.449l-4.871-0.718   l-9.227,13.506v0l9.227-13.505l-7.879,8.822l5.256-18.268v-4.068c9.038,0.08,11.7-3.793,11.7-3.793s-5.164-0.08-4.845-13.711   c0.32-13.631-5.964-15.882-8.307-16.773c-6.821-2.594-10.249,1.531-10.249,1.531c-7.907-0.731-10.089,7.907-9.118,17.744   c0.971,9.838-4.433,11.369-4.433,11.369c3.713,3.793,11.54,3.553,11.54,3.553v4.148l5.608,18.111l-7.693-8.613l-0.035-0.051   l-0.009,0.001l-0.001-0.001l0.001,0.001l-4.861,0.717l4.201-10.469c-0.056,0.056-0.117,0.111-0.18,0.166   c-0.021,0.018-0.043,0.035-0.064,0.053c-0.044,0.037-0.089,0.073-0.136,0.109c-0.026,0.02-0.053,0.04-0.08,0.06   c-0.046,0.034-0.092,0.067-0.14,0.1c-0.028,0.02-0.057,0.039-0.086,0.059c-0.052,0.034-0.104,0.068-0.158,0.102   c-0.027,0.017-0.053,0.034-0.08,0.05c-0.074,0.045-0.149,0.089-0.227,0.133c-0.008,0.004-0.015,0.009-0.023,0.013   c-0.085,0.048-0.172,0.095-0.261,0.142c-0.029,0.015-0.059,0.03-0.089,0.046c-0.061,0.031-0.122,0.062-0.185,0.093   c-0.035,0.017-0.069,0.034-0.104,0.05c-0.06,0.029-0.12,0.057-0.181,0.085c-0.035,0.016-0.069,0.032-0.104,0.048   c-0.065,0.029-0.13,0.058-0.196,0.087c-0.03,0.013-0.06,0.027-0.091,0.04c-0.091,0.039-0.183,0.078-0.274,0.115   c-0.004,0.002-0.009,0.004-0.013,0.005c-0.099,0.04-0.198,0.08-0.297,0.118c-0.023,0.009-0.046,0.018-0.069,0.026   c-0.076,0.029-0.151,0.058-0.227,0.086c-0.029,0.011-0.058,0.021-0.087,0.032c-0.071,0.026-0.141,0.052-0.211,0.076   c-0.028,0.01-0.055,0.02-0.083,0.029c-0.076,0.027-0.151,0.053-0.226,0.079c-0.019,0.006-0.038,0.013-0.057,0.02   c-0.194,0.066-0.383,0.128-0.564,0.186c-1.004,0.32-1.771,0.508-1.82,0.534c-0.122,0.065-1.887,0.392-5.358,2.024   c-0.364,0.171-0.689,0.365-0.984,0.572c-0.008,0.005-0.015,0.01-0.023,0.016c-0.082,0.058-0.161,0.118-0.238,0.178   c-0.016,0.013-0.032,0.025-0.048,0.037c-0.073,0.059-0.144,0.118-0.213,0.178c-0.017,0.015-0.033,0.029-0.05,0.044   c-0.068,0.06-0.133,0.121-0.197,0.183c-0.015,0.014-0.029,0.028-0.043,0.043c-0.064,0.063-0.126,0.127-0.186,0.192   c-0.009,0.01-0.017,0.019-0.026,0.029c-0.254,0.28-0.47,0.568-0.652,0.855c-0.014,0.022-0.028,0.044-0.042,0.065   c-0.031,0.051-0.061,0.102-0.09,0.152c-0.02,0.034-0.04,0.069-0.059,0.103c-0.024,0.044-0.047,0.087-0.07,0.131   c-0.022,0.042-0.044,0.084-0.065,0.125c-0.018,0.037-0.036,0.074-0.054,0.11c-0.024,0.05-0.046,0.099-0.068,0.148   c-0.013,0.029-0.026,0.057-0.038,0.085c-0.027,0.062-0.052,0.123-0.076,0.184c-0.006,0.015-0.012,0.03-0.018,0.044   c-0.06,0.154-0.112,0.303-0.156,0.444c0,0,0,0,0.001,0c-0.001,0.004-0.003,0.008-0.004,0.013l0.713,0.376h0.002   c0.031,0.017,0.062,0.034,0.094,0.051c3.525,1.9,8.338,4.176,12.955,5.349c4.499,1.144,6.294,4.843,6.934,8.44   c2.469,0.266,4.142,0.338,4.254,0.343l0,0l0,0c0.004,0,0.011,0,0.011,0h0c0.001,0,19.293-0.773,25.219-7.564v-5.746   C96.861,58.179,96.678,54.632,93.208,52.999z M71.628,71.468l-0.012-0.064l0.026,0.085L71.628,71.468z"></path></g></svg>